<svg xmlns="http://www.w3.org/2000/svg" xmlns:xlink="http://www.w3.org/1999/xlink" xmlns:lucid="lucid" width="1655.12" height="1114"><g transform="translate(460.5 201)" lucid:page-tab-id="0_0"><path d="M0 478a6 6 0 0 1 6-6h542a6 6 0 0 1 6 6v192a6 6 0 0 1-6 6H6a6 6 0 0 1-6-6z" stroke="#000" stroke-width="2" fill="#fff"/><path d="M0 514.9h554M0 579.27h554" stroke="#000" stroke-width="2" fill="none"/><use xlink:href="#a" transform="matrix(1,0,0,1,8,480) translate(206.8046875 21.58376736111111)"/><use xlink:href="#b" transform="matrix(1,0,0,1,12,587.2760416666667) translate(0 32.450954861111114)"/><use xlink:href="#c" transform="matrix(1,0,0,1,12,587.2760416666667) translate(20.95269097222222 32.450954861111114)"/><use xlink:href="#d" transform="matrix(1,0,0,1,12,587.2760416666667) translate(0 64.71657986111111)"/><use xlink:href="#e" transform="matrix(1,0,0,1,12,587.2760416666667) translate(338.0859375 64.71657986111111)"/><path d="M740 26a6 6 0 0 1 6-6h362a6 6 0 0 1 6 6v321a6 6 0 0 1-6 6H746a6 6 0 0 1-6-6z" stroke="#000" stroke-width="2" fill="#fff"/><path d="M740 62.9h374M740 288.6h374" stroke="#000" stroke-width="2" fill="none"/><use xlink:href="#f" transform="matrix(1,0,0,1,748,28) translate(43.32921006944446 21.58376736111111)"/><use xlink:href="#g" transform="matrix(1,0,0,1,748,28) translate(195.53190104166666 21.58376736111111)"/><use xlink:href="#h" transform="matrix(1,0,0,1,752,70.88802083333334) translate(0 32.41970486111112)"/><use xlink:href="#i" transform="matrix(1,0,0,1,752,70.88802083333334) translate(20.95269097222222 32.41970486111112)"/><use xlink:href="#j" transform="matrix(1,0,0,1,752,70.88802083333334) translate(145.55121527777777 32.41970486111112)"/><use xlink:href="#k" transform="matrix(1,0,0,1,752,70.88802083333334) translate(238.07508680555554 32.41970486111112)"/><use xlink:href="#h" transform="matrix(1,0,0,1,752,70.88802083333334) translate(0 64.68532986111111)"/><use xlink:href="#l" transform="matrix(1,0,0,1,752,70.88802083333334) translate(20.95269097222222 64.68532986111111)"/><use xlink:href="#m" transform="matrix(1,0,0,1,752,70.88802083333334) translate(123.38324652777777 64.68532986111111)"/><use xlink:href="#h" transform="matrix(1,0,0,1,752,70.88802083333334) translate(0 96.95095486111111)"/><use xlink:href="#n" transform="matrix(1,0,0,1,752,70.88802083333334) translate(20.95269097222222 96.95095486111111)"/><use xlink:href="#o" transform="matrix(1,0,0,1,752,70.88802083333334) translate(155.75086805555554 96.95095486111111)"/><use xlink:href="#h" transform="matrix(1,0,0,1,752,70.88802083333334) translate(0 129.21657986111111)"/><use xlink:href="#p" transform="matrix(1,0,0,1,752,70.88802083333334) translate(20.95269097222222 129.21657986111111)"/><use xlink:href="#q" transform="matrix(1,0,0,1,752,70.88802083333334) translate(127.91883680555557 129.21657986111111)"/><use xlink:href="#h" transform="matrix(1,0,0,1,752,70.88802083333334) translate(0 161.48220486111111)"/><use xlink:href="#r" transform="matrix(1,0,0,1,752,70.88802083333334) translate(20.95269097222222 161.48220486111111)"/><use xlink:href="#s" transform="matrix(1,0,0,1,752,70.88802083333334) translate(65.234375 161.48220486111111)"/><use xlink:href="#t" transform="matrix(1,0,0,1,752,70.88802083333334) translate(83.96267361111111 161.48220486111111)"/><use xlink:href="#u" transform="matrix(1,0,0,1,752,70.88802083333334) translate(162.97743055555554 161.48220486111111)"/><use xlink:href="#h" transform="matrix(1,0,0,1,752,70.88802083333334) translate(0 193.74782986111111)"/><use xlink:href="#v" transform="matrix(1,0,0,1,752,70.88802083333334) translate(20.95269097222222 193.74782986111111)"/><use xlink:href="#w" transform="matrix(1,0,0,1,752,70.88802083333334) translate(85.56857638888889 193.74782986111111)"/><path d="M740 478a6 6 0 0 1 6-6h362a6 6 0 0 1 6 6v192a6 6 0 0 1-6 6H746a6 6 0 0 1-6-6z" stroke="#000" stroke-width="2" fill="#fff"/><path d="M740 514.9h374m-374 96.64h374" stroke="#000" stroke-width="2" fill="none"/><use xlink:href="#x" transform="matrix(1,0,0,1,748,480) translate(128.94661458333331 21.58376736111111)"/><use xlink:href="#h" transform="matrix(1,0,0,1,752,522.8880208333334) translate(0 32.450954861111114)"/><use xlink:href="#y" transform="matrix(1,0,0,1,752,522.8880208333334) translate(20.95269097222222 32.450954861111114)"/><use xlink:href="#o" transform="matrix(1,0,0,1,752,522.8880208333334) translate(92.48046875 32.450954861111114)"/><use xlink:href="#h" transform="matrix(1,0,0,1,752,522.8880208333334) translate(0 64.71657986111111)"/><use xlink:href="#n" transform="matrix(1,0,0,1,752,522.8880208333334) translate(20.95269097222222 64.71657986111111)"/><use xlink:href="#w" transform="matrix(1,0,0,1,752,522.8880208333334) translate(155.75086805555554 64.71657986111111)"/><path d="M-420 586a6 6 0 0 1 6-6h362a6 6 0 0 1 6 6v192a6 6 0 0 1-6 6h-362a6 6 0 0 1-6-6z" stroke="#000" stroke-width="2" fill="#fff"/><path d="M-420 622.9h374m-374 96.64h374" stroke="#000" stroke-width="2" fill="none"/><use xlink:href="#z" transform="matrix(1,0,0,1,-412,588) translate(133.87282986111111 21.58376736111111)"/><use xlink:href="#h" transform="matrix(1,0,0,1,-408,630.8880208333334) translate(0 32.450954861111114)"/><use xlink:href="#y" transform="matrix(1,0,0,1,-408,630.8880208333334) translate(20.95269097222222 32.450954861111114)"/><use xlink:href="#o" transform="matrix(1,0,0,1,-408,630.8880208333334) translate(92.48046875 32.450954861111114)"/><use xlink:href="#h" transform="matrix(1,0,0,1,-408,630.8880208333334) translate(0 64.71657986111111)"/><use xlink:href="#A" transform="matrix(1,0,0,1,-408,630.8880208333334) translate(20.95269097222222 64.71657986111111)"/><use xlink:href="#B" transform="matrix(1,0,0,1,-408,630.8880208333334) translate(234.62456597222217 64.71657986111111)"/><path d="M975.87 431.48h-42.85l-.88.06-.85.2-.8.34-.75.45-.65.56-.57.65-.45.74-.33.8-.2.84-.07.88v33.48h-.95v-33.52l.07-1 .24-.98.4-.94.52-.87.66-.78.77-.66.86-.53.94-.4 1-.23.98-.08h42.9zm139.52 0H985.8v-.96h129.6zm40.08-19.5h-.95V290.67h.95zm-5.46-225.88l.98.24.94.4.87.52.78.66.66.77.53.86.4.94.23 1 .08.98v76.66h-.95v-76.62l-.07-.88-.2-.85-.34-.8-.45-.75-.56-.66-.65-.57-.74-.45-.8-.33-.83-.2-.9-.08h-33.47v-.94h33.52z" stroke="#3a414a" stroke-width=".05" fill="#3a414a"/><path d="M1115.52 186.97h-.52v-.94h.52z" fill="#3a414a"/><path stroke="#3a414a" stroke-width=".05" fill="#3a414a"/><path d="M927.48 471h-.95v-.5h.95z" fill="#3a414a"/><path stroke="#3a414a" stroke-width=".05" fill="#3a414a"/><use xlink:href="#C" transform="matrix(1,0,0,1,1115.3879707222222,411.99522563888894) translate(0 17.22222222222222)"/><use xlink:href="#D" transform="matrix(1,0,0,1,1150.0320679444444,269.142003532842) translate(0 17.22222222222222)"/><use xlink:href="#D" transform="matrix(1,0,0,1,975.8675442467398,420.2448416666666) translate(0 17.22222222222222)"/><path d="M277 470.5v-50.2" stroke="#3a414a" fill="none"/><path d="M277.48 471h-.95v-.5h.95z" stroke="#3a414a" stroke-width=".05" fill="#3a414a"/><path d="M277 398.16l12.5 21.65h-25z" stroke="#3a414a" fill="#fff"/><path d="M-420 198a6 6 0 0 1 6-6h362a6 6 0 0 1 6 6v160a6 6 0 0 1-6 6h-362a6 6 0 0 1-6-6z" stroke="#000" stroke-width="2" fill="#fff"/><path d="M-420 234.9h374m-374 64.38h374" stroke="#000" stroke-width="2" fill="none"/><use xlink:href="#E" transform="matrix(1,0,0,1,-412,200) translate(143.29123263888889 21.58376736111111)"/><use xlink:href="#h" transform="matrix(1,0,0,1,-408,307.2760416666667) translate(0 32.583767361111114)"/><use xlink:href="#F" transform="matrix(1,0,0,1,-408,307.2760416666667) translate(20.95269097222222 32.583767361111114)"/><use xlink:href="#e" transform="matrix(1,0,0,1,-408,307.2760416666667) translate(272.72135416666663 32.583767361111114)"/><path d="M37 746a6 6 0 0 1 6-6h468a6 6 0 0 1 6 6v160a6 6 0 0 1-6 6H43a6 6 0 0 1-6-6z" stroke="#000" stroke-width="2" fill="#fff"/><path d="M37 782.9h480M37 847.27h480" stroke="#000" stroke-width="2" fill="none"/><use xlink:href="#G" transform="matrix(1,0,0,1,45.00086805555557,748) translate(187.98958333333334 21.58376736111111)"/><use xlink:href="#h" transform="matrix(1,0,0,1,49.00086805555557,855.2760416666667) translate(0 32.583767361111114)"/><use xlink:href="#H" transform="matrix(1,0,0,1,49.00086805555557,855.2760416666667) translate(20.95269097222222 32.583767361111114)"/><path d="M277 738.5v-38.16" stroke="#3a414a" fill="none"/><path d="M277.48 739h-.95v-.5h.95z" stroke="#3a414a" stroke-width=".05" fill="#3a414a"/><path d="M277 678.2l12.5 21.64h-25z" stroke="#3a414a" fill="#fff"/><path d="M564.7 574.48h-8.72v-.96h8.7zm45.48 0h-16v-.96h16zm103.96 0H684.3v-.96h29.84zm24.36 0h-14.42v-.96h14.42z" stroke="#3a414a" stroke-width=".05" fill="#3a414a"/><path d="M556 574.48h-1v-.96h1z" fill="#3a414a"/><path stroke="#3a414a" stroke-width=".05" fill="#3a414a"/><path d="M739 574.48h-.5v-.96h.5z" fill="#3a414a"/><path stroke="#3a414a" stroke-width=".05" fill="#3a414a"/><use xlink:href="#I" transform="matrix(1,0,0,1,610.1842048687403,563.2447916666666) translate(0 17.22222222222222)"/><use xlink:href="#J" transform="matrix(1,0,0,1,564.6927488636604,563.2447916666666) translate(0 17.22222222222222)"/><use xlink:href="#D" transform="matrix(1,0,0,1,714.1376636312865,563.2447916666666) translate(0 17.22222222222222)"/><path d="M-44.5 278H65.85" stroke="#3a414a" fill="none"/><path d="M-44.48 278.48H-45v-.96h.52z" stroke="#3a414a" stroke-width=".05" fill="#3a414a"/><path d="M88 278l-21.65 12.5v-25z" stroke="#3a414a" fill="#fff"/><path d="M-304.37 578.5h-.95v-22.77h.95zm71.85-112.48l-.08 1-.24.98-.4.94-.52.87-.66.78-.77.66-.86.53-.94.4-1 .23-.98.08h-59.85l-.88.06-.86.2-.8.34-.74.45-.65.56-.57.65-.45.74-.33.8-.2.84-.07.88v56.2h-.95v-56.24l.07-1 .24-.98.38-.94.53-.87.67-.78.77-.66.87-.53.95-.4 1-.23.98-.08h59.85l.9-.06.83-.2.8-.34.75-.45.66-.56.57-.65.45-.74.33-.8.2-.84.08-.88V402.3h.95zm0-85.23h-.95v-15.3h.95z" stroke="#3a414a" stroke-width=".05" fill="#3a414a"/><path d="M-232.52 365.5h-.95v-.5h.95z" fill="#3a414a"/><path stroke="#3a414a" stroke-width=".05" fill="#3a414a"/><path d="M-304.37 579h-.95v-.5h.95z" fill="#3a414a"/><path stroke="#3a414a" stroke-width=".05" fill="#3a414a"/><use xlink:href="#D" transform="matrix(1,0,0,1,-237.96875000000003,380.78914697168915) translate(0 17.22222222222222)"/><use xlink:href="#D" transform="matrix(1,0,0,1,-309.81859447374126,534.215548951368) translate(0 17.22222222222222)"/><path d="M-455.7 471.25l.84.2.88.07h2v.96h-2.04l-1-.08-.98-.24-.47-.2.36-.87zm11.74 1.23h-4v-.96h4zm8.04 0h-4.02v-.96h4.02zm8.03 0h-4v-.96h4zm8.05 0h-4.02v-.96h4.02zm8.03 0h-4v-.96h4zm8.04 0h-4.02v-.96h4.02zm8.03 0h-4v-.96h4zm8.04 0h-4.03v-.96h4.02zm8.02 0h-4v-.96h4zm8.04 0h-4.02v-.96h4.02zm8.03 0h-4.03v-.96h4.02zm8.03 0h-4.02v-.96h4.03zm8.03 0h-4.02v-.96h4.02zm8.04 0h-4.02v-.96h4.02zm8.03 0h-4.02v-.96h4.03zm8.04 0h-4.02v-.96h4.02zm8.03 0h-4.02v-.96h4.02zm8.03 0h-4v-.96h4zm8.04 0h-4.02v-.96h4.02zm8.03 0h-4v-.96h4zm8.04 0h-4.02v-.96h4.02zm6.03 0h-2v-.96h2zm-182.3-6.5l.07.88.2.85.17.4-.86.37-.2-.47-.24-1-.08-.98V464h.96zm0-6h-.95v-4.03h.96zm0-8.06h-.95v-4.02h.96zm0-8.04h-.95v-4.02h.96zm0-8.04h-.95v-4.02h.96zm0-8.05h-.95v-4.03h.96zm0-8.05h-.95v-4.02h.96zm0-8.04h-.95v-4h.96zm0-8.04h-.95v-4.02h.96zm0-8.04h-.95v-4.02h.96zm0-8.04h-.95v-4.03h.96zm0-8.05h-.95v-4.02h.96zm0-8.04h-.95v-4.03h.96zm0-8.05h-.95v-4.03h.96zm0-8.05h-.95v-4.02h.96zm0-8.04h-.95v-4.02h.96zm0-8.05h-.95v-4h.96zm0-8.03h-.95v-4.02h.96zm0-8.04h-.95v-4.02h.96zm0-8.05h-.95v-4.02h.96zm0-8.04h-.95v-4.02h.96zm0-8.04h-.95v-4.02h.96zm0-8.05h-.95v-4.02h.96zm0-8.04h-.95v-4h.96zm0-8.03h-.95v-4.02h.96zm0-8.05h-.95v-4.02h.96zm0-8.04h-.95v-4.02h.96zm0-8.04h-.95v-4.03h.96zm0-8.05h-.95v-4.03h.96zm0-8.05h-.95v-4.02h.96zm0-8.04h-.95v-4h.96zm0-8.04h-.95v-4.02h.96zm0-8.04h-.95v-4.02h.96zm0-8.04h-.95v-4.03h.96zm0-8.05h-.95v-4.02h.96zm1198.03-7.56h-2.1v-.94h2.1zm-6.28 0h-4.2v-.94h4.2zm-8.38 0h-4.18v-.94h4.18zm-8.37 0h-4.2v-.94h4.2zm-12.18-1.22l.84.2.88.08h2.07v.94h-2.12l-1-.07-.98-.24-.47-.2.36-.87zm-1162.82.74h-.96v-4.03h.96zm1159-6.02l.06.88.2.85.17.4-.87.37-.2-.47-.23-1-.08-.98v-1.94h.96zm-1159-2.03h-.96v-4.03h.96zm1159-3.7h-.96v-3.85h.96zm-1159-4.35h-.96v-4.02h.96zm1159-3.34h-.96v-3.84h.96zm-1159-4.7h-.96v-4.02h.96zm1159-3h-.96v-3.83h.96zm-1159-5.05h-.96v-4h.96zm1159-2.6h-.96v-3.85h.96zm-1159-5.43h-.96v-4.02h.96zm1159-2.26h-.96v-3.83h.96zm-1159-5.77h-.96v-4.02h.96zm1159-1.9h-.96v-3.84h.96zm-1159-6.15h-.96v-4.02h.96zm1159-1.53h-.96v-3.84h.96zm-1159-6.5h-.96v-4.03h.96zm1159-1.18h-.96v-3.84h.96zm-1159-6.87h-.96v-4.02h.96zm1159-.82h-.96v-3.84h.96zm-1159-7.23h-.96v-4.02h.96zm1159-.45h-.96v-3.84h.96zM-459.1 93.9l-.15.4-.2.84-.07.88v2h-.96v-2.04l.08-1 .24-.98.2-.47zm1158.26.1l.24 1 .08.98v1.94h-.96v-1.9l-.06-.88-.2-.85-.17-.4.87-.37zM694 89.6l1 .24.47.2-.36.87-.4-.15-.84-.2-.88-.08h-2v-.94h2.04zm-1146 .88h-1.98l-.88.06-.85.2-.4.17-.37-.87.47-.2 1-.23.98-.07h2.02zm1138.98 0h-4v-.95h4zm-8.02 0h-4v-.95h4zm-8.02 0h-4v-.95h4zm-8.02 0h-4v-.95h4zm-8.02 0h-4v-.95h4zm-8.02 0h-4v-.95h4zm-8.02 0h-4v-.95h4zm-8.02 0h-4v-.95h4zm-8.02 0h-4v-.95h4zm-8.02 0h-4v-.95h4zm-8.02 0h-4.02v-.95h4zm-8.03 0h-4v-.95h4zm-8.02 0h-4v-.95h4zm-8.02 0h-4v-.95h4zm-8 0h-4.02v-.95h4zm-8.03 0h-4v-.95h4zm-8.02 0h-4v-.95h4zm-8.02 0h-4v-.95h4zm-8.02 0h-4v-.95h4zm-8 0h-4.02v-.95h4zm-8.03 0h-4.02v-.95h4.02zm-8.03 0h-4v-.95h4zm-8.02 0h-4v-.95h4zm-8.02 0h-4v-.95h4zm-8.02 0h-4v-.95h4zm-8.02 0h-4v-.95h4zm-8.02 0h-4v-.95h4zm-8.02 0h-4v-.95h4zm-8.02 0h-4v-.95h4zm-8.02 0h-4v-.95h4zm-8.02 0h-4.02v-.95h4.02zm-8.03 0h-4v-.95h4zm-8.02 0h-4v-.95h4zm-8 0h-4.02v-.95h4zm-8.03 0h-4v-.95h4zm-8.02 0h-4v-.95h4zm-8.02 0h-4v-.95h4zm-8.02 0h-4v-.95h4zm-8 0h-4.02v-.95h4zm-8.03 0h-4v-.95h4zm-8.03 0h-4v-.95h4zm-8.02 0h-4v-.95h4zm-8.02 0h-4v-.95h4zm-8.02 0h-4v-.95h4zm-8.02 0h-4v-.95h4zm-8.02 0h-4v-.95h4zm-8.02 0h-4v-.95h4zm-8.02 0h-4v-.95h4zm-8.02 0h-4v-.95h4zm-8.02 0h-4v-.95h4zm-8.02 0h-4v-.95h4zm-8.03 0h-4v-.95h4zm-8 0h-4.02v-.95h4zm-8.03 0h-4v-.95h4zm-8.02 0h-4v-.95h4zm-8.02 0h-4v-.95h4zm-8.02 0h-4v-.95h4zm-8 0h-4.02v-.95h4zm-8.03 0h-4v-.95h4zm-8.02 0h-4v-.95h4zm-8.02 0h-4v-.95h4zm-8.02 0h-4v-.95h4zm-8.02 0h-4v-.95h4zm-8.02 0h-4v-.95h4zm-8.02 0h-4v-.95h4zm-8.02 0h-4v-.95h4zm-8.02 0h-4v-.95h4zm-8.02 0h-4v-.95h4zm-8.02 0h-4v-.95h4zm-8.02 0h-4v-.95h4zm-8.02 0h-4.02v-.95h4.02zm-8.02 0h-4.02v-.95h4.02zm-8.03 0h-4v-.95h4zm-8.02 0h-4v-.95h4zm-8.02 0h-4v-.95h4zm-8.02 0h-4v-.95h4zm-8 0h-4.02v-.95h4zm-8.03 0h-4v-.95h4zm-8.02 0h-4v-.95h4zm-8.02 0h-4v-.95h4zm-8.02 0h-4v-.95h4zm-8.02 0h-4v-.95h4zm-8.02 0h-4v-.95h4zm-8.02 0h-4v-.95h4zm-8.02 0h-4v-.95h4zm-8.02 0h-4v-.95h4zm-8.02 0h-4v-.95h4zm-8.02 0h-4v-.95h4zm-8.02 0h-4v-.95h4zm-8.02 0h-4v-.95h4zm-8.02 0h-4v-.95h4zm-8.02 0h-4.02v-.95h4.02zm-8.03 0h-4v-.95h4zm-8.02 0h-4v-.95h4zm-8.02 0h-4v-.95h4zm-8 0h-4.02v-.95h4zm-8.03 0h-4v-.95h4zm-8.02 0h-4v-.95h4zm-8.02 0h-4v-.95h4zm-8.02 0h-4v-.95h4zm-8 0h-4.02v-.95h4zm-8.04 0h-4v-.95h4zm-8.02 0h-4v-.95h4zm-8.02 0h-4v-.95h4zm-8.02 0h-4v-.95h4zm-8.02 0h-4v-.95h4zm-8.02 0h-4v-.95h4zm-8.02 0h-4v-.95h4zm-8.02 0h-4v-.95h4zm-8.02 0h-4v-.95h4zm-8.02 0h-4v-.95h4zm-8.02 0h-4v-.95h4zm-8.03 0h-4v-.95h4zm-8.02 0h-4v-.95h4zm-8 0h-4.02v-.95h4zm-8.03 0h-4v-.95h4zm-8.02 0h-4v-.95h4zm-8.02 0h-4v-.95h4zm-8.02 0h-4v-.95h4zm-8 0h-4.02v-.95h4zm-8.03 0h-4v-.95h4zm-8.02 0h-4v-.95h4zm-8.02 0h-4.02v-.95h4.03zm-8.03 0h-4v-.95h4zm-8.02 0h-4v-.95h4zm-8.02 0h-4v-.95h4zm-8.02 0h-4v-.95h4zm-8.02 0h-4v-.95h4zm-8.02 0h-4v-.95h4zm-8.02 0h-4v-.95h4zm-8.02 0h-4v-.95h4zm-8.02 0h-4v-.95h4zm-8.03 0h-4v-.95h4zm-8 0h-4.02v-.95h4zm-8.03 0h-4v-.95h4zm-8.02 0h-4v-.95h4zm-8.02 0h-4v-.95h4zm-8.02 0h-4v-.95h4zm-8 0h-4.02v-.95h4zm-8.03 0h-4v-.95h4zm-8.02 0h-4v-.95h4zm-8.02 0h-4v-.95h4z" stroke="#3a414a" stroke-width=".05" fill="#3a414a"/><path d="M739 186.97h-.5v-.94h.5z" fill="#3a414a"/><path stroke="#3a414a" stroke-width=".05" fill="#3a414a"/><path d="M-276.73 472.48h-.52v-.96h.52z" stroke="#3a414a" stroke-width=".05" fill="#3a414a"/><path d="M90 166a6 6 0 0 1 6-6h362a6 6 0 0 1 6 6v224a6 6 0 0 1-6 6H96a6 6 0 0 1-6-6z" stroke="#000" stroke-width="2" fill="#fff"/><path d="M90 202.9h374M90 331.8h374" stroke="#000" stroke-width="2" fill="none"/><use xlink:href="#K" transform="matrix(1,0,0,1,98.00000000000003,168) translate(134.84396701388889 21.58376736111111)"/><use xlink:href="#h" transform="matrix(1,0,0,1,102.00000000000003,210.88802083333334) translate(0 32.318142361111114)"/><use xlink:href="#L" transform="matrix(1,0,0,1,102.00000000000003,210.88802083333334) translate(20.95269097222222 32.318142361111114)"/><use xlink:href="#o" transform="matrix(1,0,0,1,102.00000000000003,210.88802083333334) translate(138.17274305555554 32.318142361111114)"/><use xlink:href="#h" transform="matrix(1,0,0,1,102.00000000000003,210.88802083333334) translate(0 64.58376736111111)"/><use xlink:href="#M" transform="matrix(1,0,0,1,102.00000000000003,210.88802083333334) translate(20.95269097222222 64.58376736111111)"/><use xlink:href="#o" transform="matrix(1,0,0,1,102.00000000000003,210.88802083333334) translate(136.07855902777777 64.58376736111111)"/><use xlink:href="#h" transform="matrix(1,0,0,1,102.00000000000003,210.88802083333334) translate(0 96.84939236111111)"/><use xlink:href="#N" transform="matrix(1,0,0,1,102.00000000000003,210.88802083333334) translate(20.95269097222222 96.84939236111111)"/><use xlink:href="#O" transform="matrix(1,0,0,1,102.00000000000003,210.88802083333334) translate(110.7421875 96.84939236111111)"/><path d="M569.03 528.3h-13.05v-.96h13.05zm78.7-6.46l-.1 1-.23.98-.4.94-.52.86-.66.78-.77.66-.87.53-.94.38-1 .23-.98.1h-62.3v-.96h62.26l.9-.07.83-.2.8-.33.74-.46.65-.56.56-.66.46-.74.34-.8.2-.84.07-.88V401.27h.95zm58.16-268.15h-52.64l-.88.06-.85.2-.8.34-.74.45-.66.56-.57.67-.45.74-.33.8-.2.86-.08.88v120.52h-.95V259.2l.08-1 .23-.98.4-.94.52-.87.66-.76.77-.66.87-.53.94-.4 1-.23.98-.07h52.67zm32.6 0h-22.67v-.95h22.67z" stroke="#3a414a" stroke-width=".05" fill="#3a414a"/><path d="M556 528.3h-1v-.96h1z" fill="#3a414a"/><path stroke="#3a414a" stroke-width=".05" fill="#3a414a"/><path d="M739 253.7h-.5v-.95h.5z" fill="#3a414a"/><path stroke="#3a414a" stroke-width=".05" fill="#3a414a"/><g><use xlink:href="#P" transform="matrix(1,0,0,1,587.2848918902171,379.76282706031367) translate(0 17.22222222222222)"/></g><g><use xlink:href="#D" transform="matrix(1,0,0,1,569.0263818108906,517.0607490297218) translate(0 17.22222222222222)"/></g><g><use xlink:href="#D" transform="matrix(1,0,0,1,705.8940846425148,242.46490509090535) translate(0 17.22222222222222)"/></g><path d="M160-194a6 6 0 0 1 6-6h362a6 6 0 0 1 6 6V30a6 6 0 0 1-6 6H166a6 6 0 0 1-6-6z" stroke="#000" stroke-width="2" fill="#fff"/><path d="M160-157.1h374M160-28.2h374" stroke="#000" stroke-width="2" fill="none"/><g><use xlink:href="#Q" transform="matrix(1,0,0,1,168,-192) translate(119.87543402777777 21.58376736111111)"/></g><g><use xlink:href="#h" transform="matrix(1,0,0,1,172,-149.11197916666666) translate(0 32.318142361111114)"/><use xlink:href="#R" transform="matrix(1,0,0,1,172,-149.11197916666666) translate(20.95269097222222 32.318142361111114)"/><use xlink:href="#o" transform="matrix(1,0,0,1,172,-149.11197916666666) translate(85.72048611111111 32.318142361111114)"/><use xlink:href="#h" transform="matrix(1,0,0,1,172,-149.11197916666666) translate(0 64.58376736111111)"/><use xlink:href="#S" transform="matrix(1,0,0,1,172,-149.11197916666666) translate(20.95269097222222 64.58376736111111)"/><use xlink:href="#o" transform="matrix(1,0,0,1,172,-149.11197916666666) translate(100.55338541666666 64.58376736111111)"/><use xlink:href="#h" transform="matrix(1,0,0,1,172,-149.11197916666666) translate(0 96.84939236111111)"/><use xlink:href="#T" transform="matrix(1,0,0,1,172,-149.11197916666666) translate(20.95269097222222 96.84939236111111)"/><use xlink:href="#U" transform="matrix(1,0,0,1,172,-149.11197916666666) translate(79.54644097222221 96.84939236111111)"/></g><path d="M637.98 45.8l.06.8.2.78.3.73.4.68.5.6.6.5.68.42.73.3.76.2.84.05h49.13v1.95h-49.2l-1.06-.08-1.05-.26-1.02-.4-.93-.6-.83-.7-.7-.83-.6-.94-.4-1.02-.26-1.06-.07-1.05v-50.2h1.95zM738 50.84v1.95h-20.23v-1.95zM632.1-82.9l1.06.26 1 .42.94.58.83.7.72.84.57.93.42 1 .25 1.08.08 1.06v50.2h-1.95v-50.12l-.07-.83-.18-.75-.3-.73-.42-.67-.5-.6-.6-.5-.68-.42-.73-.3-.76-.2-.84-.06h-52.04v-1.94h52.12zM536-81v-1.95h9.63v1.94z" stroke="#3a414a" stroke-width=".05" fill="#3a414a"/><path d="M536.03-81.03H535v-1.94h1.03z" fill="#3a414a"/><path stroke="#3a414a" stroke-width=".05" fill="#3a414a"/><path d="M739 52.8h-1.03v-1.95H739z" fill="#3a414a"/><path stroke="#3a414a" stroke-width=".05" fill="#3a414a"/><g><use xlink:href="#V" transform="matrix(1,0,0,1,545.6347725593068,-92.75520833333333) translate(0 17.22222222222222)"/></g><g><use xlink:href="#W" transform="matrix(1,0,0,1,692.1749925575617,41.0721976370027) translate(0 17.22222222222222)"/></g><g><use xlink:href="#X" transform="matrix(1,0,0,1,626.306402578516,-25.84150534816526) translate(0 17.22222222222222)"/></g><path d="M-232.02 190h-1.95v-20.9h1.95zm262.25-75.03h-257.2l-.8.07-.78.18-.73.3-.67.42-.6.5-.5.6-.42.68-.3.73-.2.76-.05.84v27.56h-1.95v-27.64l.08-1.05.26-1.06.42-1 .58-.94.7-.83.84-.7.93-.6 1-.4 1.08-.26 1.06-.07H30.23zm317.75-6.93l-.1 1.05-.24 1.06-.42 1-.57.94-.7.83-.85.7-.93.6-1 .4-1.08.26-1.06.07H83.77v-1.94h257.2l.82-.07.75-.18.73-.3.67-.42.6-.5.5-.6.43-.68.3-.73.18-.76.07-.84V59.83h1.95zm0-69.72h-1.95V38h1.95z" stroke="#3a414a" stroke-width=".05" fill="#3a414a"/><path d="M-232.02 191h-1.95v-1.03h1.95z" fill="#3a414a"/><path stroke="#3a414a" stroke-width=".05" fill="#3a414a"/><path d="M347.98 38.03h-1.95V37h1.95z" fill="#3a414a"/><path stroke="#3a414a" stroke-width=".05" fill="#3a414a"/><g><use xlink:href="#Y" transform="matrix(1,0,0,1,30.234374999999957,103.24479166666664) translate(0 17.22222222222222)"/></g><g><use xlink:href="#V" transform="matrix(1,0,0,1,330.36024305555554,38.32050424446642) translate(0 17.22222222222222)"/></g><g><use xlink:href="#W" transform="matrix(1,0,0,1,-245.79861111111114,147.60256354393144) translate(0 17.22222222222222)"/></g><path d="M-19.64 214.3H-44v-1.94h24.36zm477.9-63.33H1.03l-.82.07-.77.18-.73.3-.67.42-.6.5-.5.6-.42.68-.3.73-.2.76-.05.84v51.33l-.1 1.06-.24 1.06-.42 1-.57.94-.7.83-.85.7-.93.58-1 .42-.87.2v-2l.25-.06.73-.3.67-.4.6-.52.52-.6.4-.67.3-.72.2-.76.06-.83v-51.34l.08-1.05.27-1.06.4-1 .6-.94.7-.83.83-.72.93-.57 1-.42 1.08-.25 1.06-.07h457.3zm258.1-26h-11.32l-.83.07-.75.18-.73.3-.67.42-.6.5-.5.6-.43.68-.3.73-.18.76-.06.84v14l-.1 1.05-.24 1.06-.42 1-.58.94-.7.83-.84.72-.93.57-1 .42-1.08.25-1.06.07H496.4v-1.94h196.56l.83-.07.75-.18.73-.3.67-.42.6-.5.5-.6.43-.68.3-.73.18-.76.06-.84v-14l.1-1.05.24-1.06.42-1 .58-.94.7-.83.84-.7.93-.6 1-.4 1.08-.26 1.06-.07h11.4zm21.64 0h-11.7v-1.94H738z" stroke="#3a414a" stroke-width=".05" fill="#3a414a"/><path d="M-43.97 214.3H-45v-1.94h1.03z" fill="#3a414a"/><path stroke="#3a414a" stroke-width=".05" fill="#3a414a"/><path d="M739 124.97h-1.03v-1.94H739z" fill="#3a414a"/><path stroke="#3a414a" stroke-width=".05" fill="#3a414a"/><g><use xlink:href="#Z" transform="matrix(1,0,0,1,458.2534722222223,139.24479166666666) translate(0 17.22222222222222)"/></g><g><use xlink:href="#D" transform="matrix(1,0,0,1,716.3637152777777,113.24478865523457) translate(0 17.22222222222222)"/></g><g><use xlink:href="#D" transform="matrix(1,0,0,1,-19.636284722222243,202.57812562397154) translate(0 17.22222222222222)"/></g><defs><path d="M659 0H135v-1490h529c448 0 721 280 721 744 0 466-273 746-726 746zM440-263h204c287 0 437-148 437-483 0-333-150-481-435-481H440v964" id="aa"/><path d="M128 0v-1118h300V0H128zm150-1264c-91 0-165-68-165-154 0-85 74-154 165-154 90 0 165 69 165 154 0 86-75 154-165 154" id="ab"/><path d="M128 418v-1536h295v188h14c41-89 129-202 319-202 248 0 453 193 453 575 0 372-197 576-455 576-183 0-275-108-317-198h-9v597H128zm534-640c156 0 240-139 240-336 0-196-83-334-240-334-154 0-241 131-241 334 0 202 88 336 241 336" id="ac"/><path d="M633 22C291 22 81-200 81-553c0-345 210-579 537-579 292 0 525 185 525 567v84H378c7 183 109 277 260 277 105 0 184-46 216-132l272 51C1071-99 893 22 633 22zM380-669h474c-15-146-94-237-233-237-143 0-229 99-241 237" id="ad"/><path d="M428-647V0H128v-1118h283l4 231c63-156 176-245 348-245 232 0 384 159 384 421V0H847v-659c0-139-76-222-202-222-128 0-217 86-217 234" id="ae"/><path d="M537 19C279 19 81-185 81-557c0-382 206-575 454-575 190 0 278 113 318 202h10v-560h300V0H868v-179h-15C812-89 719 19 537 19zm92-241c153 0 240-134 240-336 0-203-86-334-240-334-158 0-240 138-240 334 0 197 84 336 240 336" id="af"/><path d="M683-1118v229H474v562c0 71 29 104 102 104 23 0 73-7 95-13l43 225C647 9 580 16 520 16 296 16 174-96 174-301v-588H20v-229h154v-266h300v266h209" id="ag"/><g id="a"><use transform="matrix(0.010850694444444444,0,0,0.010850694444444444,0,0)" xlink:href="#aa"/><use transform="matrix(0.010850694444444444,0,0,0.010850694444444444,16.048177083333332,0)" xlink:href="#ab"/><use transform="matrix(0.010850694444444444,0,0,0.010850694444444444,22.0703125,0)" xlink:href="#ac"/><use transform="matrix(0.010850694444444444,0,0,0.010850694444444444,36.07855902777778,0)" xlink:href="#ad"/><use transform="matrix(0.010850694444444444,0,0,0.010850694444444444,49.31640625,0)" xlink:href="#ae"/><use transform="matrix(0.010850694444444444,0,0,0.010850694444444444,63.151041666666664,0)" xlink:href="#af"/><use transform="matrix(0.010850694444444444,0,0,0.010850694444444444,77.15928819444444,0)" xlink:href="#ad"/><use transform="matrix(0.010850694444444444,0,0,0.010850694444444444,90.39713541666666,0)" xlink:href="#ae"/><use transform="matrix(0.010850694444444444,0,0,0.010850694444444444,104.23177083333333,0)" xlink:href="#ag"/><use transform="matrix(0.010850694444444444,0,0,0.010850694444444444,112.15277777777777,0)" xlink:href="#ad"/></g><path d="M593-100v-404H195v-159h398v-403h169v403h398v159H762v404H593" id="ah"/><use transform="matrix(0.010850694444444444,0,0,0.010850694444444444,0,0)" xlink:href="#ah" id="b"/><path d="M471 26C259 26 90-98 90-318c0-256 228-303 435-329 202-27 287-16 287-108 0-139-79-219-234-219-161 0-248 86-283 164l-173-57c86-203 278-265 451-265 150 0 419 46 419 395V0H815v-152h-12C765-73 660 26 471 26zm31-159c199 0 310-134 310-271v-155c-30 35-226 55-295 64-131 17-246 59-246 186 0 116 97 176 231 176" id="ai"/><path d="M611 442c-248 0-391-105-460-228l146-94c47 65 117 165 314 165 178 0 307-82 307-266v-224h-17C863-141 792-18 576-18c-268 0-472-195-472-546 0-346 197-568 476-568 216 0 288 133 326 193h17v-179h175V29c0 289-215 413-487 413zm-5-620c203 0 314-146 314-390 0-237-108-403-314-403-213 0-319 180-319 403 0 230 109 390 319 390" id="aj"/><path d="M158 0v-1118h180V0H158zm91-1301c-68 0-125-53-125-119s57-119 125-119c69 0 126 53 126 119s-57 119-126 119" id="ak"/><path d="M537 14c-226 0-379-139-379-422v-710h180v695c0 172 97 275 253 275 160 0 281-109 281-300v-670h181V0H879v-209C806-46 684 14 537 14" id="al"/><path d="M338-670V0H158v-1118h173l1 207c72-158 192-221 342-221 226 0 378 139 378 422V0H872v-695c0-172-96-275-252-275-161 0-282 109-282 300" id="am"/><path d="M98-1322v-168h1126v168H757V0H567v-1322H98" id="an"/><path d="M158 418v-1536h174v179h20c37-59 106-193 324-193 279 0 474 222 474 576 0 356-194 580-473 580-213 0-288-135-325-197h-14v591H158zm492-555c209 0 317-186 317-421 0-232-105-413-317-413-206 0-314 166-314 413 0 249 111 421 314 421" id="ao"/><path d="M613 24c-304 0-509-231-509-576 0-350 205-580 509-580 305 0 511 230 511 580 0 345-206 576-511 576zm0-161c226 0 329-195 329-415 0-222-103-419-329-419-223 0-326 196-326 419 0 220 103 415 326 415" id="ap"/><path d="M338-1490V0H158v-1490h180" id="aq"/><path d="M657 26c-323 0-524-166-541-416h195c15 169 171 246 346 246 202 0 356-106 356-265 5-203-294-238-475-293-239-73-380-191-380-389 0-252 224-419 512-419 294 0 499 171 508 396H992c-17-145-151-228-328-228-193 0-321 102-321 242 0 156 175 211 284 241l149 41c160 44 422 134 422 412 0 244-197 432-541 432" id="ar"/><path d="M628 24c-324 0-524-230-524-574 0-343 198-582 503-582 237 0 487 146 487 559v75H286c9 234 145 362 343 362 132 0 231-58 273-172l174 48C1024-91 857 24 628 24zM287-650h624c-17-190-120-322-304-322-192 0-309 151-320 322" id="as"/><path d="M126 0v-134l627-806v-11H146v-167h839v143L376-178v11h629V0H126" id="at"/><path d="M218-607c0-325 108-727 258-974h175c-155 315-250 682-250 974 0 265 78 531 250 886H476C306-10 218-315 218-607" id="au"/><path d="M96 279C273-86 346-350 346-607c0-292-95-659-250-974h175c150 246 258 650 258 974 0 297-91 602-258 886H96" id="av"/><path d="M295 13c-75 0-135-60-135-135s60-135 135-135 135 60 135 135S370 13 295 13zm0-809c-75 0-135-60-135-135s60-135 135-135 135 60 135 135-60 135-135 135" id="aw"/><path d="M481 0L54-1118h197c107 314 236 620 325 951 87-331 217-637 324-951h197L670 0H481" id="ax"/><path d="M577 24c-279 0-473-224-473-580 0-354 195-576 474-576 218 0 287 134 324 193h14v-551h180V0H922v-173h-20C865-111 790 24 577 24zm27-161c203 0 314-172 314-421 0-247-108-413-314-413-212 0-317 181-317 413 0 235 108 421 317 421" id="ay"/><g id="c"><use transform="matrix(0.010850694444444444,0,0,0.010850694444444444,0,0)" xlink:href="#ai"/><use transform="matrix(0.010850694444444444,0,0,0.010850694444444444,12.47829861111111,0)" xlink:href="#aj"/><use transform="matrix(0.010850694444444444,0,0,0.010850694444444444,26.106770833333332,0)" xlink:href="#aj"/><use transform="matrix(0.010850694444444444,0,0,0.010850694444444444,39.73524305555556,0)" xlink:href="#ak"/><use transform="matrix(0.010850694444444444,0,0,0.010850694444444444,45.1171875,0)" xlink:href="#al"/><use transform="matrix(0.010850694444444444,0,0,0.010850694444444444,58.25737847222222,0)" xlink:href="#am"/><use transform="matrix(0.010850694444444444,0,0,0.010850694444444444,71.38671875,0)" xlink:href="#aj"/><use transform="matrix(0.010850694444444444,0,0,0.010850694444444444,85.01519097222223,0)" xlink:href="#ak"/><use transform="matrix(0.010850694444444444,0,0,0.010850694444444444,90.39713541666666,0)" xlink:href="#an"/><use transform="matrix(0.010850694444444444,0,0,0.010850694444444444,104.74175347222224,0)" xlink:href="#ak"/><use transform="matrix(0.010850694444444444,0,0,0.010850694444444444,110.12369791666666,0)" xlink:href="#ao"/><use transform="matrix(0.010850694444444444,0,0,0.010850694444444444,123.73046875,0)" xlink:href="#ap"/><use transform="matrix(0.010850694444444444,0,0,0.010850694444444444,137.05512152777777,0)" xlink:href="#aq"/><use transform="matrix(0.010850694444444444,0,0,0.010850694444444444,142.43706597222223,0)" xlink:href="#ap"/><use transform="matrix(0.010850694444444444,0,0,0.010850694444444444,155.76171875,0)" xlink:href="#aj"/><use transform="matrix(0.010850694444444444,0,0,0.010850694444444444,169.39019097222223,0)" xlink:href="#ak"/><use transform="matrix(0.010850694444444444,0,0,0.010850694444444444,174.77213541666669,0)" xlink:href="#ai"/><use transform="matrix(0.010850694444444444,0,0,0.010850694444444444,187.2504340277778,0)" xlink:href="#ar"/><use transform="matrix(0.010850694444444444,0,0,0.010850694444444444,201.5082465277778,0)" xlink:href="#as"/><use transform="matrix(0.010850694444444444,0,0,0.010850694444444444,214.46397569444449,0)" xlink:href="#aj"/><use transform="matrix(0.010850694444444444,0,0,0.010850694444444444,228.09244791666669,0)" xlink:href="#am"/><use transform="matrix(0.010850694444444444,0,0,0.010850694444444444,241.22178819444449,0)" xlink:href="#ai"/><use transform="matrix(0.010850694444444444,0,0,0.010850694444444444,253.7000868055556,0)" xlink:href="#aq"/><use transform="matrix(0.010850694444444444,0,0,0.010850694444444444,259.08203125,0)" xlink:href="#ai"/><use transform="matrix(0.010850694444444444,0,0,0.010850694444444444,271.5603298611111,0)" xlink:href="#at"/><use transform="matrix(0.010850694444444444,0,0,0.010850694444444444,283.83246527777777,0)" xlink:href="#ak"/><use transform="matrix(0.010850694444444444,0,0,0.010850694444444444,289.21440972222223,0)" xlink:href="#ap"/><use transform="matrix(0.010850694444444444,0,0,0.010850694444444444,302.5390625,0)" xlink:href="#am"/><use transform="matrix(0.010850694444444444,0,0,0.010850694444444444,315.66840277777777,0)" xlink:href="#as"/><use transform="matrix(0.010850694444444444,0,0,0.010850694444444444,328.62413194444446,0)" xlink:href="#au"/><use transform="matrix(0.010850694444444444,0,0,0.010850694444444444,336.72960069444446,0)" xlink:href="#an"/><use transform="matrix(0.010850694444444444,0,0,0.010850694444444444,351.07421875,0)" xlink:href="#ak"/><use transform="matrix(0.010850694444444444,0,0,0.010850694444444444,356.45616319444446,0)" xlink:href="#ao"/><use transform="matrix(0.010850694444444444,0,0,0.010850694444444444,370.06293402777777,0)" xlink:href="#ap"/><use transform="matrix(0.010850694444444444,0,0,0.010850694444444444,383.38758680555554,0)" xlink:href="#aq"/><use transform="matrix(0.010850694444444444,0,0,0.010850694444444444,388.76953125,0)" xlink:href="#ap"/><use transform="matrix(0.010850694444444444,0,0,0.010850694444444444,402.09418402777777,0)" xlink:href="#aj"/><use transform="matrix(0.010850694444444444,0,0,0.010850694444444444,415.72265625,0)" xlink:href="#ak"/><use transform="matrix(0.010850694444444444,0,0,0.010850694444444444,421.10460069444446,0)" xlink:href="#ai"/><use transform="matrix(0.010850694444444444,0,0,0.010850694444444444,433.58289930555554,0)" xlink:href="#av"/><use transform="matrix(0.010850694444444444,0,0,0.010850694444444444,441.68836805555554,0)" xlink:href="#aw"/><use transform="matrix(0.010850694444444444,0,0,0.010850694444444444,448.09027777777777,0)" xlink:href="#ax"/><use transform="matrix(0.010850694444444444,0,0,0.010850694444444444,460.14539930555554,0)" xlink:href="#ap"/><use transform="matrix(0.010850694444444444,0,0,0.010850694444444444,473.4700520833333,0)" xlink:href="#ak"/><use transform="matrix(0.010850694444444444,0,0,0.010850694444444444,478.85199652777777,0)" xlink:href="#ay"/></g><path d="M538 24C308 24 148-78 108-271l171-41c32 123 123 178 257 178 156 0 256-77 256-169 0-77-54-128-164-154l-186-44c-203-48-300-148-300-305 0-192 176-326 414-326 230 0 351 112 402 269l-163 42c-31-80-94-158-238-158-133 0-233 69-233 162 0 83 57 129 188 160l169 40c203 48 298 149 298 302 0 196-179 339-441 339" id="az"/><path d="M598-1118v154H368v674c0 100 37 144 132 144 23 0 62-6 92-12L629-6c-37 13-88 20-134 20-193 0-307-107-307-290v-688H20v-154h168v-266h180v266h230" id="aA"/><path d="M613 24c-304 0-509-231-509-576 0-350 205-580 509-580 216 0 392 114 453 309l-173 49c-33-115-133-197-280-197-223 0-326 196-326 419 0 220 103 415 326 415 150 0 252-85 285-206l172 49C1010-95 832 24 613 24" id="aB"/><path d="M180 0v-1490h510c348 0 508 209 508 474 0 266-160 477-507 477H370V0H180zm190-706h312c236 0 327-133 327-310 0-176-91-307-329-307H370v617" id="aC"/><path d="M158 0v-1118h174v172h12c41-113 157-188 290-188 26 0 70 2 91 3v181c-11-2-60-10-108-10-161 0-279 109-279 260V0H158" id="aD"/><path d="M677 24c-213 0-288-135-325-197h-20V0H158v-1490h180v551h14c37-59 106-193 324-193 279 0 474 222 474 576 0 356-194 580-473 580zm-27-161c209 0 317-186 317-421 0-232-105-413-317-413-206 0-314 166-314 413 0 249 111 421 314 421" id="aE"/><path d="M158 0v-1118h175l1 205c55-151 181-225 313-225 147 0 245 90 285 228 53-141 190-228 352-228 194 0 352 125 352 384V0h-181v-749c0-161-105-225-225-225-151 0-243 103-243 244V0H807v-767c0-124-93-207-219-207-131 0-250 92-250 270V0H158" id="aF"/><g id="d"><use transform="matrix(0.010850694444444444,0,0,0.010850694444444444,0,0)" xlink:href="#ah"/><use transform="matrix(0.010850694444444444,0,0,0.010850694444444444,14.702690972222221,0)" xlink:href="#aj"/><use transform="matrix(0.010850694444444444,0,0,0.010850694444444444,28.331163194444443,0)" xlink:href="#as"/><use transform="matrix(0.010850694444444444,0,0,0.010850694444444444,41.28689236111111,0)" xlink:href="#az"/><use transform="matrix(0.010850694444444444,0,0,0.010850694444444444,53.01649305555556,0)" xlink:href="#aA"/><use transform="matrix(0.010850694444444444,0,0,0.010850694444444444,60.28645833333333,0)" xlink:href="#ak"/><use transform="matrix(0.010850694444444444,0,0,0.010850694444444444,65.66840277777777,0)" xlink:href="#az"/><use transform="matrix(0.010850694444444444,0,0,0.010850694444444444,77.39800347222221,0)" xlink:href="#aB"/><use transform="matrix(0.010850694444444444,0,0,0.010850694444444444,90.09331597222221,0)" xlink:href="#ak"/><use transform="matrix(0.010850694444444444,0,0,0.010850694444444444,95.47526041666666,0)" xlink:href="#ar"/><use transform="matrix(0.010850694444444444,0,0,0.010850694444444444,109.73307291666666,0)" xlink:href="#aA"/><use transform="matrix(0.010850694444444444,0,0,0.010850694444444444,117.11154513888887,0)" xlink:href="#ai"/><use transform="matrix(0.010850694444444444,0,0,0.010850694444444444,129.58984374999997,0)" xlink:href="#aA"/><use transform="matrix(0.010850694444444444,0,0,0.010850694444444444,136.64279513888886,0)" xlink:href="#ap"/><use transform="matrix(0.010850694444444444,0,0,0.010850694444444444,149.96744791666663,0)" xlink:href="#aC"/><use transform="matrix(0.010850694444444444,0,0,0.010850694444444444,164.16015624999997,0)" xlink:href="#aD"/><use transform="matrix(0.010850694444444444,0,0,0.010850694444444444,172.15711805555551,0)" xlink:href="#ap"/><use transform="matrix(0.010850694444444444,0,0,0.010850694444444444,185.4817708333333,0)" xlink:href="#aE"/><use transform="matrix(0.010850694444444444,0,0,0.010850694444444444,199.08854166666663,0)" xlink:href="#aq"/><use transform="matrix(0.010850694444444444,0,0,0.010850694444444444,204.47048611111111,0)" xlink:href="#as"/><use transform="matrix(0.010850694444444444,0,0,0.010850694444444444,217.42621527777774,0)" xlink:href="#aF"/><use transform="matrix(0.010850694444444444,0,0,0.010850694444444444,236.89236111111111,0)" xlink:href="#ai"/><use transform="matrix(0.010850694444444444,0,0,0.010850694444444444,249.3706597222222,0)" xlink:href="#au"/><use transform="matrix(0.010850694444444444,0,0,0.010850694444444444,257.4761284722222,0)" xlink:href="#az"/><use transform="matrix(0.010850694444444444,0,0,0.010850694444444444,269.20572916666663,0)" xlink:href="#aA"/><use transform="matrix(0.010850694444444444,0,0,0.010850694444444444,276.4756944444444,0)" xlink:href="#aD"/><use transform="matrix(0.010850694444444444,0,0,0.010850694444444444,285.1888020833333,0)" xlink:href="#ak"/><use transform="matrix(0.010850694444444444,0,0,0.010850694444444444,290.57074652777777,0)" xlink:href="#am"/><use transform="matrix(0.010850694444444444,0,0,0.010850694444444444,303.70008680555554,0)" xlink:href="#aj"/><use transform="matrix(0.010850694444444444,0,0,0.010850694444444444,317.32855902777777,0)" xlink:href="#av"/><use transform="matrix(0.010850694444444444,0,0,0.010850694444444444,325.43402777777777,0)" xlink:href="#aw"/></g><g id="e"><use transform="matrix(0.010850694444444444,0,0,0.010850694444444444,0,0)" xlink:href="#ax"/><use transform="matrix(0.010850694444444444,0,0,0.010850694444444444,12.055121527777777,0)" xlink:href="#ap"/><use transform="matrix(0.010850694444444444,0,0,0.010850694444444444,25.379774305555554,0)" xlink:href="#ak"/><use transform="matrix(0.010850694444444444,0,0,0.010850694444444444,30.76171875,0)" xlink:href="#ay"/></g><path d="M681 22C323 22 94-145 85-462h297c10 151 131 226 296 226 163 0 271-77 271-190 0-102-95-149-257-189l-164-41c-252-61-403-188-403-405 0-269 236-449 560-449 330 0 546 183 551 445H941c-11-119-106-188-259-188-156 0-244 72-244 172-3 156 226 185 373 221 250 61 445 186 445 436 0 271-213 446-575 446" id="aG"/><path d="M625 442c-280 0-454-114-503-274l258-72c28 63 97 128 243 128 153 0 246-69 246-216v-206h-23C805-108 717-16 536-16 284-16 81-191 81-561c0-378 208-571 456-571 188 0 280 113 321 202h13v-188h295V-9c0 303-226 451-541 451zm5-686c153 0 240-119 240-319 0-198-86-329-240-329-158 0-241 137-241 329 0 195 85 319 241 319" id="aH"/><path d="M440 22C227 22 68-92 68-313c0-250 202-322 422-343 195-21 271-24 271-105 0-95-63-149-175-149-116 0-187 57-211 129l-275-46c57-194 237-305 487-305 240 0 474 108 474 379V0H777v-155h-10C713-51 605 22 440 22zm85-211c140 0 238-93 238-211v-121c-37 26-156 42-222 51-111 16-185 59-185 149 0 87 70 132 169 132" id="aI"/><path d="M428-1490V0H128v-1490h300" id="aJ"/><path d="M120 0v-182l551-686v-8H137v-242h897v199L514-250v8h539V0H120" id="aK"/><path d="M628 22C291 22 81-210 81-554c0-346 210-578 547-578 336 0 547 232 547 578 0 344-211 576-547 576zm0-236c160 0 242-146 242-341 0-197-82-341-242-341S387-753 387-555c0 195 81 341 241 341" id="aL"/><g id="f"><use transform="matrix(0.010850694444444444,0,0,0.010850694444444444,0,0)" xlink:href="#aG"/><use transform="matrix(0.010850694444444444,0,0,0.010850694444444444,14.55078125,0)" xlink:href="#ad"/><use transform="matrix(0.010850694444444444,0,0,0.010850694444444444,27.78862847222222,0)" xlink:href="#aH"/><use transform="matrix(0.010850694444444444,0,0,0.010850694444444444,41.82942708333333,0)" xlink:href="#ae"/><use transform="matrix(0.010850694444444444,0,0,0.010850694444444444,55.664062499999986,0)" xlink:href="#aI"/><use transform="matrix(0.010850694444444444,0,0,0.010850694444444444,68.56553819444444,0)" xlink:href="#aJ"/><use transform="matrix(0.010850694444444444,0,0,0.010850694444444444,74.58767361111111,0)" xlink:href="#aI"/><use transform="matrix(0.010850694444444444,0,0,0.010850694444444444,87.48914930555556,0)" xlink:href="#aK"/><use transform="matrix(0.010850694444444444,0,0,0.010850694444444444,100.21701388888889,0)" xlink:href="#ab"/><use transform="matrix(0.010850694444444444,0,0,0.010850694444444444,106.23914930555556,0)" xlink:href="#aL"/><use transform="matrix(0.010850694444444444,0,0,0.010850694444444444,119.86762152777777,0)" xlink:href="#ae"/><use transform="matrix(0.010850694444444444,0,0,0.010850694444444444,133.70225694444443,0)" xlink:href="#ad"/></g><path d="M169-607c0-330 107-732 258-974h279c-145 311-231 674-231 974 0 262 67 512 231 886H427C258-1 169-307 169-607" id="aM"/><path d="M135 0v-1490h581c339 0 533 210 533 503 0 295-197 500-540 500H440V0H135zm305-733h220c186 0 274-104 274-254s-88-251-275-251H440v505" id="aN"/><path d="M128 0v-1118h290v195h12c54-169 184-238 367-200v268c-27-8-86-15-130-15-138 0-239 95-239 234V0H128" id="aO"/><path d="M754 19C571 19 479-89 437-179h-14V0H128v-1490h300v560h9c41-89 129-202 319-202 248 0 453 193 453 575 0 372-197 576-455 576zm-92-241c156 0 240-139 240-336 0-196-83-334-240-334-154 0-241 131-241 334 0 202 88 336 241 336" id="aP"/><path d="M128 0v-1118h278l12 217c60-163 185-234 319-234 143 0 236 81 288 251 63-172 205-251 359-251 205 0 357 138 357 381V0h-301v-697c0-126-76-187-177-187-114 0-184 79-184 196V0H789v-705c0-109-72-179-174-179-106 0-187 74-187 208V0H128" id="aQ"/><path d="M67 279c166-379 230-627 230-886 0-300-86-663-230-974h278c151 241 258 644 258 974 0 302-90 608-258 886H67" id="aR"/><g id="g"><use transform="matrix(0.010850694444444444,0,0,0.010850694444444444,0,0)" xlink:href="#aM"/><use transform="matrix(0.010850694444444444,0,0,0.010850694444444444,8.778211805555555,0)" xlink:href="#aN"/><use transform="matrix(0.010850694444444444,0,0,0.010850694444444444,23.177083333333332,0)" xlink:href="#aO"/><use transform="matrix(0.010850694444444444,0,0,0.010850694444444444,31.684027777777775,0)" xlink:href="#aL"/><use transform="matrix(0.010850694444444444,0,0,0.010850694444444444,45.3125,0)" xlink:href="#aP"/><use transform="matrix(0.010850694444444444,0,0,0.010850694444444444,59.32074652777778,0)" xlink:href="#aJ"/><use transform="matrix(0.010850694444444444,0,0,0.010850694444444444,65.34288194444444,0)" xlink:href="#ad"/><use transform="matrix(0.010850694444444444,0,0,0.010850694444444444,78.58072916666666,0)" xlink:href="#aQ"/><use transform="matrix(0.010850694444444444,0,0,0.010850694444444444,98.86067708333331,0)" xlink:href="#aI"/><use transform="matrix(0.010850694444444444,0,0,0.010850694444444444,111.76215277777776,0)" xlink:href="#aR"/></g><use transform="matrix(0.010850694444444444,0,0,0.010850694444444444,0,0)" xlink:href="#ah" id="h"/><g id="i"><use transform="matrix(0.010850694444444444,0,0,0.010850694444444444,0,0)" xlink:href="#aB"/><use transform="matrix(0.010850694444444444,0,0,0.010850694444444444,12.6953125,0)" xlink:href="#ap"/><use transform="matrix(0.010850694444444444,0,0,0.010850694444444444,26.01996527777778,0)" xlink:href="#ap"/><use transform="matrix(0.010850694444444444,0,0,0.010850694444444444,39.34461805555556,0)" xlink:href="#aD"/><use transform="matrix(0.010850694444444444,0,0,0.010850694444444444,47.34157986111111,0)" xlink:href="#ay"/><use transform="matrix(0.010850694444444444,0,0,0.010850694444444444,60.94835069444444,0)" xlink:href="#ak"/><use transform="matrix(0.010850694444444444,0,0,0.010850694444444444,66.33029513888889,0)" xlink:href="#am"/><use transform="matrix(0.010850694444444444,0,0,0.010850694444444444,79.45963541666666,0)" xlink:href="#ai"/><use transform="matrix(0.010850694444444444,0,0,0.010850694444444444,91.93793402777777,0)" xlink:href="#aA"/><use transform="matrix(0.010850694444444444,0,0,0.010850694444444444,98.99088541666666,0)" xlink:href="#as"/><use transform="matrix(0.010850694444444444,0,0,0.010850694444444444,111.94661458333333,0)" xlink:href="#aw"/></g><path d="M128 359l88-567h206L266 359H128" id="aS"/><g id="j"><use transform="matrix(0.010850694444444444,0,0,0.010850694444444444,0,0)" xlink:href="#au"/><use transform="matrix(0.010850694444444444,0,0,0.010850694444444444,7.855902777777778,0)" xlink:href="#ay"/><use transform="matrix(0.010850694444444444,0,0,0.010850694444444444,21.46267361111111,0)" xlink:href="#ap"/><use transform="matrix(0.010850694444444444,0,0,0.010850694444444444,34.787326388888886,0)" xlink:href="#al"/><use transform="matrix(0.010850694444444444,0,0,0.010850694444444444,47.92751736111111,0)" xlink:href="#aE"/><use transform="matrix(0.010850694444444444,0,0,0.010850694444444444,61.53428819444444,0)" xlink:href="#aq"/><use transform="matrix(0.010850694444444444,0,0,0.010850694444444444,66.91623263888889,0)" xlink:href="#as"/><use transform="matrix(0.010850694444444444,0,0,0.010850694444444444,79.87196180555556,0)" xlink:href="#aS"/></g><g id="k"><use transform="matrix(0.010850694444444444,0,0,0.010850694444444444,0,0)" xlink:href="#ay"/><use transform="matrix(0.010850694444444444,0,0,0.010850694444444444,13.606770833333332,0)" xlink:href="#ap"/><use transform="matrix(0.010850694444444444,0,0,0.010850694444444444,26.931423611111104,0)" xlink:href="#al"/><use transform="matrix(0.010850694444444444,0,0,0.010850694444444444,40.07161458333333,0)" xlink:href="#aE"/><use transform="matrix(0.010850694444444444,0,0,0.010850694444444444,53.67838541666666,0)" xlink:href="#aq"/><use transform="matrix(0.010850694444444444,0,0,0.010850694444444444,59.0603298611111,0)" xlink:href="#as"/><use transform="matrix(0.010850694444444444,0,0,0.010850694444444444,71.76649305555554,0)" xlink:href="#av"/></g><g id="l"><use transform="matrix(0.010850694444444444,0,0,0.010850694444444444,0,0)" xlink:href="#aA"/><use transform="matrix(0.010850694444444444,0,0,0.010850694444444444,7.269965277777778,0)" xlink:href="#ak"/><use transform="matrix(0.010850694444444444,0,0,0.010850694444444444,12.651909722222221,0)" xlink:href="#ao"/><use transform="matrix(0.010850694444444444,0,0,0.010850694444444444,26.258680555555554,0)" xlink:href="#ap"/><use transform="matrix(0.010850694444444444,0,0,0.010850694444444444,39.58333333333333,0)" xlink:href="#aq"/><use transform="matrix(0.010850694444444444,0,0,0.010850694444444444,44.96527777777778,0)" xlink:href="#ap"/><use transform="matrix(0.010850694444444444,0,0,0.010850694444444444,58.28993055555555,0)" xlink:href="#aj"/><use transform="matrix(0.010850694444444444,0,0,0.010850694444444444,71.91840277777777,0)" xlink:href="#ak"/><use transform="matrix(0.010850694444444444,0,0,0.010850694444444444,77.30034722222221,0)" xlink:href="#ai"/><use transform="matrix(0.010850694444444444,0,0,0.010850694444444444,89.77864583333333,0)" xlink:href="#aw"/></g><g id="m"><use transform="matrix(0.010850694444444444,0,0,0.010850694444444444,0,0)" xlink:href="#an"/><use transform="matrix(0.010850694444444444,0,0,0.010850694444444444,14.344618055555555,0)" xlink:href="#ak"/><use transform="matrix(0.010850694444444444,0,0,0.010850694444444444,19.7265625,0)" xlink:href="#ao"/><use transform="matrix(0.010850694444444444,0,0,0.010850694444444444,33.33333333333333,0)" xlink:href="#ap"/><use transform="matrix(0.010850694444444444,0,0,0.010850694444444444,46.65798611111111,0)" xlink:href="#aq"/><use transform="matrix(0.010850694444444444,0,0,0.010850694444444444,52.03993055555556,0)" xlink:href="#ap"/><use transform="matrix(0.010850694444444444,0,0,0.010850694444444444,65.36458333333333,0)" xlink:href="#aj"/><use transform="matrix(0.010850694444444444,0,0,0.010850694444444444,78.99305555555554,0)" xlink:href="#ak"/><use transform="matrix(0.010850694444444444,0,0,0.010850694444444444,84.37499999999999,0)" xlink:href="#ai"/></g><g id="n"><use transform="matrix(0.010850694444444444,0,0,0.010850694444444444,0,0)" xlink:href="#ay"/><use transform="matrix(0.010850694444444444,0,0,0.010850694444444444,13.606770833333332,0)" xlink:href="#as"/><use transform="matrix(0.010850694444444444,0,0,0.010850694444444444,26.5625,0)" xlink:href="#az"/><use transform="matrix(0.010850694444444444,0,0,0.010850694444444444,38.29210069444444,0)" xlink:href="#aB"/><use transform="matrix(0.010850694444444444,0,0,0.010850694444444444,50.98741319444444,0)" xlink:href="#aD"/><use transform="matrix(0.010850694444444444,0,0,0.010850694444444444,59.70052083333333,0)" xlink:href="#ak"/><use transform="matrix(0.010850694444444444,0,0,0.010850694444444444,65.08246527777777,0)" xlink:href="#at"/><use transform="matrix(0.010850694444444444,0,0,0.010850694444444444,77.35460069444444,0)" xlink:href="#ak"/><use transform="matrix(0.010850694444444444,0,0,0.010850694444444444,82.73654513888889,0)" xlink:href="#ap"/><use transform="matrix(0.010850694444444444,0,0,0.010850694444444444,96.06119791666666,0)" xlink:href="#am"/><use transform="matrix(0.010850694444444444,0,0,0.010850694444444444,109.19053819444441,0)" xlink:href="#as"/><use transform="matrix(0.010850694444444444,0,0,0.010850694444444444,122.1462673611111,0)" xlink:href="#aw"/></g><g id="o"><use transform="matrix(0.010850694444444444,0,0,0.010850694444444444,0,0)" xlink:href="#az"/><use transform="matrix(0.010850694444444444,0,0,0.010850694444444444,11.729600694444445,0)" xlink:href="#aA"/><use transform="matrix(0.010850694444444444,0,0,0.010850694444444444,18.99956597222222,0)" xlink:href="#aD"/><use transform="matrix(0.010850694444444444,0,0,0.010850694444444444,27.712673611111104,0)" xlink:href="#ak"/><use transform="matrix(0.010850694444444444,0,0,0.010850694444444444,33.09461805555555,0)" xlink:href="#am"/><use transform="matrix(0.010850694444444444,0,0,0.010850694444444444,46.22395833333333,0)" xlink:href="#aj"/></g><g id="p"><use transform="matrix(0.010850694444444444,0,0,0.010850694444444444,0,0)" xlink:href="#ak"/><use transform="matrix(0.010850694444444444,0,0,0.010850694444444444,5.381944444444445,0)" xlink:href="#aF"/><use transform="matrix(0.010850694444444444,0,0,0.010850694444444444,24.84809027777778,0)" xlink:href="#aF"/><use transform="matrix(0.010850694444444444,0,0,0.010850694444444444,44.314236111111114,0)" xlink:href="#ai"/><use transform="matrix(0.010850694444444444,0,0,0.010850694444444444,56.79253472222223,0)" xlink:href="#aj"/><use transform="matrix(0.010850694444444444,0,0,0.010850694444444444,70.42100694444446,0)" xlink:href="#ak"/><use transform="matrix(0.010850694444444444,0,0,0.010850694444444444,75.8029513888889,0)" xlink:href="#am"/><use transform="matrix(0.010850694444444444,0,0,0.010850694444444444,88.93229166666666,0)" xlink:href="#ak"/><use transform="matrix(0.010850694444444444,0,0,0.010850694444444444,94.31423611111111,0)" xlink:href="#aw"/></g><path d="M174-520v-126l944-476v196L406-588v12l712 338v194" id="aT"/><path d="M1181-520L237-44v-194l712-338v-12L237-926v-196l944 476v126" id="aU"/><g id="q"><use transform="matrix(0.010850694444444444,0,0,0.010850694444444444,0,0)" xlink:href="#aq"/><use transform="matrix(0.010850694444444444,0,0,0.010850694444444444,5.381944444444445,0)" xlink:href="#ak"/><use transform="matrix(0.010850694444444444,0,0,0.010850694444444444,10.76388888888889,0)" xlink:href="#az"/><use transform="matrix(0.010850694444444444,0,0,0.010850694444444444,22.493489583333336,0)" xlink:href="#aA"/><use transform="matrix(0.010850694444444444,0,0,0.010850694444444444,29.134114583333336,0)" xlink:href="#aT"/><use transform="matrix(0.010850694444444444,0,0,0.010850694444444444,43.83680555555556,0)" xlink:href="#ak"/><use transform="matrix(0.010850694444444444,0,0,0.010850694444444444,49.21875,0)" xlink:href="#aF"/><use transform="matrix(0.010850694444444444,0,0,0.010850694444444444,68.68489583333333,0)" xlink:href="#aF"/><use transform="matrix(0.010850694444444444,0,0,0.010850694444444444,88.15104166666666,0)" xlink:href="#ai"/><use transform="matrix(0.010850694444444444,0,0,0.010850694444444444,100.62934027777777,0)" xlink:href="#aj"/><use transform="matrix(0.010850694444444444,0,0,0.010850694444444444,114.2578125,0)" xlink:href="#ak"/><use transform="matrix(0.010850694444444444,0,0,0.010850694444444444,119.63975694444444,0)" xlink:href="#am"/><use transform="matrix(0.010850694444444444,0,0,0.010850694444444444,132.76909722222223,0)" xlink:href="#as"/><use transform="matrix(0.010850694444444444,0,0,0.010850694444444444,145.72482638888889,0)" xlink:href="#aU"/></g><g id="r"><use transform="matrix(0.010850694444444444,0,0,0.010850694444444444,0,0)" xlink:href="#ax"/><use transform="matrix(0.010850694444444444,0,0,0.010850694444444444,12.055121527777777,0)" xlink:href="#ap"/><use transform="matrix(0.010850694444444444,0,0,0.010850694444444444,25.379774305555554,0)" xlink:href="#aA"/><use transform="matrix(0.010850694444444444,0,0,0.010850694444444444,32.64973958333333,0)" xlink:href="#ak"/></g><use transform="matrix(0.010850694444444444,0,0,0.010850694444444444,0,0)" xlink:href="#ai" id="s"/><path d="M678-1118v154H420V0H240v-964H20v-154h220v-149c0-194 155-293 318-293 85 0 141 18 168 30l-50 154c-19-6-47-17-97-17-111 0-159 58-159 166v109h258" id="aV"/><g id="t"><use transform="matrix(0.010850694444444444,0,0,0.010850694444444444,0,0)" xlink:href="#aV"/><use transform="matrix(0.010850694444444444,0,0,0.010850694444444444,7.877604166666666,0)" xlink:href="#ai"/><use transform="matrix(0.010850694444444444,0,0,0.010850694444444444,20.030381944444443,0)" xlink:href="#ax"/><use transform="matrix(0.010850694444444444,0,0,0.010850694444444444,32.08550347222222,0)" xlink:href="#ap"/><use transform="matrix(0.010850694444444444,0,0,0.010850694444444444,45.41015625,0)" xlink:href="#aD"/><use transform="matrix(0.010850694444444444,0,0,0.010850694444444444,53.40711805555556,0)" xlink:href="#as"/><use transform="matrix(0.010850694444444444,0,0,0.010850694444444444,66.36284722222221,0)" xlink:href="#aw"/></g><g id="u"><use transform="matrix(0.010850694444444444,0,0,0.010850694444444444,0,0)" xlink:href="#aq"/><use transform="matrix(0.010850694444444444,0,0,0.010850694444444444,5.381944444444445,0)" xlink:href="#ak"/><use transform="matrix(0.010850694444444444,0,0,0.010850694444444444,10.76388888888889,0)" xlink:href="#az"/><use transform="matrix(0.010850694444444444,0,0,0.010850694444444444,22.493489583333336,0)" xlink:href="#aA"/><use transform="matrix(0.010850694444444444,0,0,0.010850694444444444,29.134114583333336,0)" xlink:href="#aT"/><use transform="matrix(0.010850694444444444,0,0,0.010850694444444444,43.83680555555556,0)" xlink:href="#al"/><use transform="matrix(0.010850694444444444,0,0,0.010850694444444444,56.97699652777778,0)" xlink:href="#az"/><use transform="matrix(0.010850694444444444,0,0,0.010850694444444444,68.70659722222223,0)" xlink:href="#as"/><use transform="matrix(0.010850694444444444,0,0,0.010850694444444444,81.6623263888889,0)" xlink:href="#aD"/><use transform="matrix(0.010850694444444444,0,0,0.010850694444444444,90.3754340277778,0)" xlink:href="#am"/><use transform="matrix(0.010850694444444444,0,0,0.010850694444444444,103.50477430555557,0)" xlink:href="#ai"/><use transform="matrix(0.010850694444444444,0,0,0.010850694444444444,115.98307291666669,0)" xlink:href="#aF"/><use transform="matrix(0.010850694444444444,0,0,0.010850694444444444,135.44921875000003,0)" xlink:href="#as"/><use transform="matrix(0.010850694444444444,0,0,0.010850694444444444,148.40494791666669,0)" xlink:href="#aU"/></g><g id="v"><use transform="matrix(0.010850694444444444,0,0,0.010850694444444444,0,0)" xlink:href="#az"/><use transform="matrix(0.010850694444444444,0,0,0.010850694444444444,11.729600694444445,0)" xlink:href="#aA"/><use transform="matrix(0.010850694444444444,0,0,0.010850694444444444,19.108072916666668,0)" xlink:href="#ai"/><use transform="matrix(0.010850694444444444,0,0,0.010850694444444444,31.586371527777775,0)" xlink:href="#aA"/><use transform="matrix(0.010850694444444444,0,0,0.010850694444444444,38.639322916666664,0)" xlink:href="#ap"/><use transform="matrix(0.010850694444444444,0,0,0.010850694444444444,51.96397569444444,0)" xlink:href="#aw"/></g><g id="w"><use transform="matrix(0.010850694444444444,0,0,0.010850694444444444,0,0)" xlink:href="#az"/><use transform="matrix(0.010850694444444444,0,0,0.010850694444444444,11.729600694444445,0)" xlink:href="#aA"/><use transform="matrix(0.010850694444444444,0,0,0.010850694444444444,18.99956597222222,0)" xlink:href="#aD"/><use transform="matrix(0.010850694444444444,0,0,0.010850694444444444,27.712673611111104,0)" xlink:href="#ak"/><use transform="matrix(0.010850694444444444,0,0,0.010850694444444444,33.09461805555555,0)" xlink:href="#am"/><use transform="matrix(0.010850694444444444,0,0,0.010850694444444444,46.22395833333333,0)" xlink:href="#aj"/></g><path d="M75-1237v-253h1217v253H837V0H531v-1237H75" id="aW"/><g id="x"><use transform="matrix(0.010850694444444444,0,0,0.010850694444444444,0,0)" xlink:href="#aW"/><use transform="matrix(0.010850694444444444,0,0,0.010850694444444444,14.832899305555555,0)" xlink:href="#ab"/><use transform="matrix(0.010850694444444444,0,0,0.010850694444444444,20.85503472222222,0)" xlink:href="#ac"/><use transform="matrix(0.010850694444444444,0,0,0.010850694444444444,34.86328125,0)" xlink:href="#aL"/><use transform="matrix(0.010850694444444444,0,0,0.010850694444444444,48.49175347222222,0)" xlink:href="#aJ"/><use transform="matrix(0.010850694444444444,0,0,0.010850694444444444,54.513888888888886,0)" xlink:href="#aL"/><use transform="matrix(0.010850694444444444,0,0,0.010850694444444444,68.14236111111111,0)" xlink:href="#aH"/><use transform="matrix(0.010850694444444444,0,0,0.010850694444444444,82.18315972222223,0)" xlink:href="#ab"/><use transform="matrix(0.010850694444444444,0,0,0.010850694444444444,88.2052951388889,0)" xlink:href="#aI"/></g><g id="y"><use transform="matrix(0.010850694444444444,0,0,0.010850694444444444,0,0)" xlink:href="#am"/><use transform="matrix(0.010850694444444444,0,0,0.010850694444444444,13.129340277777777,0)" xlink:href="#ap"/><use transform="matrix(0.010850694444444444,0,0,0.010850694444444444,26.453993055555554,0)" xlink:href="#aF"/><use transform="matrix(0.010850694444444444,0,0,0.010850694444444444,45.920138888888886,0)" xlink:href="#as"/><use transform="matrix(0.010850694444444444,0,0,0.010850694444444444,58.87586805555555,0)" xlink:href="#aw"/></g><path d="M786 20C389 20 94-260 94-744c0-487 299-766 692-766 339 0 597 194 641 529h-309c-28-162-156-258-326-258-233 0-388 179-388 495 0 323 157 493 387 493 170 0 298-97 328-259h309c-34 277-266 530-642 530" id="aX"/><path d="M513 14c-232 0-385-159-385-421v-711h300v659c0 139 76 222 202 222 127 0 217-86 217-234v-647h301V0H864l-4-232C797-74 683 14 513 14" id="aY"/><g id="z"><use transform="matrix(0.010850694444444444,0,0,0.010850694444444444,0,0)" xlink:href="#aX"/><use transform="matrix(0.010850694444444444,0,0,0.010850694444444444,16.438802083333332,0)" xlink:href="#aL"/><use transform="matrix(0.010850694444444444,0,0,0.010850694444444444,30.067274305555554,0)" xlink:href="#aQ"/><use transform="matrix(0.010850694444444444,0,0,0.010850694444444444,50.34722222222221,0)" xlink:href="#aY"/><use transform="matrix(0.010850694444444444,0,0,0.010850694444444444,64.18185763888889,0)" xlink:href="#ae"/><use transform="matrix(0.010850694444444444,0,0,0.010850694444444444,78.01649305555556,0)" xlink:href="#ad"/></g><path d="M645 0H180v-1490h484c435 0 692 280 692 742 0 466-257 748-711 748zM370-168h263c363 0 539-218 539-580 0-358-176-574-521-574H370v1154" id="aZ"/><path d="M783 20c-382 0-661-292-661-764 0-473 279-766 661-766 302 0 548 182 601 489h-190c-42-204-217-313-411-313-268 0-476 208-476 590 0 381 209 588 476 588 195 0 369-110 411-313h190c-52 303-296 489-601 489" id="ba"/><g id="A"><use transform="matrix(0.010850694444444444,0,0,0.010850694444444444,0,0)" xlink:href="#ai"/><use transform="matrix(0.010850694444444444,0,0,0.010850694444444444,12.47829861111111,0)" xlink:href="#aD"/><use transform="matrix(0.010850694444444444,0,0,0.010850694444444444,20.475260416666664,0)" xlink:href="#as"/><use transform="matrix(0.010850694444444444,0,0,0.010850694444444444,33.64800347222222,0)" xlink:href="#ai"/><use transform="matrix(0.010850694444444444,0,0,0.010850694444444444,46.12630208333333,0)" xlink:href="#aZ"/><use transform="matrix(0.010850694444444444,0,0,0.010850694444444444,62.16362847222221,0)" xlink:href="#ak"/><use transform="matrix(0.010850694444444444,0,0,0.010850694444444444,67.54557291666666,0)" xlink:href="#ba"/><use transform="matrix(0.010850694444444444,0,0,0.010850694444444444,83.77821180555554,0)" xlink:href="#ap"/><use transform="matrix(0.010850694444444444,0,0,0.010850694444444444,97.10286458333331,0)" xlink:href="#aF"/><use transform="matrix(0.010850694444444444,0,0,0.010850694444444444,116.56901041666664,0)" xlink:href="#ao"/><use transform="matrix(0.010850694444444444,0,0,0.010850694444444444,130.17578124999997,0)" xlink:href="#as"/><use transform="matrix(0.010850694444444444,0,0,0.010850694444444444,143.13151041666663,0)" xlink:href="#aA"/><use transform="matrix(0.010850694444444444,0,0,0.010850694444444444,150.18446180555551,0)" xlink:href="#as"/><use transform="matrix(0.010850694444444444,0,0,0.010850694444444444,163.14019097222217,0)" xlink:href="#am"/><use transform="matrix(0.010850694444444444,0,0,0.010850694444444444,176.26953124999994,0)" xlink:href="#at"/><use transform="matrix(0.010850694444444444,0,0,0.010850694444444444,188.54166666666657,0)" xlink:href="#ai"/><use transform="matrix(0.010850694444444444,0,0,0.010850694444444444,201.01996527777774,0)" xlink:href="#aw"/></g><g id="B"><use transform="matrix(0.010850694444444444,0,0,0.010850694444444444,0,0)" xlink:href="#aq"/><use transform="matrix(0.010850694444444444,0,0,0.010850694444444444,5.381944444444445,0)" xlink:href="#ak"/><use transform="matrix(0.010850694444444444,0,0,0.010850694444444444,10.76388888888889,0)" xlink:href="#az"/><use transform="matrix(0.010850694444444444,0,0,0.010850694444444444,22.493489583333336,0)" xlink:href="#aA"/><use transform="matrix(0.010850694444444444,0,0,0.010850694444444444,29.134114583333336,0)" xlink:href="#aT"/><use transform="matrix(0.010850694444444444,0,0,0.010850694444444444,43.83680555555556,0)" xlink:href="#ao"/><use transform="matrix(0.010850694444444444,0,0,0.010850694444444444,57.443576388888886,0)" xlink:href="#ap"/><use transform="matrix(0.010850694444444444,0,0,0.010850694444444444,70.76822916666666,0)" xlink:href="#ak"/><use transform="matrix(0.010850694444444444,0,0,0.010850694444444444,76.1501736111111,0)" xlink:href="#am"/><use transform="matrix(0.010850694444444444,0,0,0.010850694444444444,89.27951388888887,0)" xlink:href="#aA"/><use transform="matrix(0.010850694444444444,0,0,0.010850694444444444,96.54947916666664,0)" xlink:href="#aU"/></g><path fill="#333" d="M128 418v-1536h295v188h14c41-89 129-202 319-202 248 0 453 193 453 575 0 372-197 576-455 576-183 0-275-108-317-198h-9v597H128zm534-640c156 0 240-139 240-336 0-196-83-334-240-334-154 0-241 131-241 334 0 202 88 336 241 336" id="bb"/><path fill="#333" d="M628 22C291 22 81-210 81-554c0-346 210-578 547-578 336 0 547 232 547 578 0 344-211 576-547 576zm0-236c160 0 242-146 242-341 0-197-82-341-242-341S387-753 387-555c0 195 81 341 241 341" id="bc"/><path fill="#333" d="M572 22C302 22 117-98 78-306l279-48c29 105 101 156 224 156 114 0 185-48 185-115 0-118-228-130-337-155-215-49-322-150-322-317 0-215 187-347 470-347 265 0 424 116 466 298l-266 47c-24-76-87-130-196-130-98 0-174 46-174 113 0 56 38 95 144 117l201 40c216 44 320 143 320 302 0 220-207 367-500 367" id="bd"/><path fill="#333" d="M128 0v-1118h300V0H128zm150-1264c-91 0-165-68-165-154 0-85 74-154 165-154 90 0 165 69 165 154 0 86-75 154-165 154" id="be"/><path fill="#333" d="M633 22C291 22 81-200 81-553c0-345 210-579 537-579 292 0 525 185 525 567v84H378c7 183 109 277 260 277 105 0 184-46 216-132l272 51C1071-99 893 22 633 22zM380-669h474c-15-146-94-237-233-237-143 0-229 99-241 237" id="bf"/><path fill="#333" d="M537 19C279 19 81-185 81-557c0-382 206-575 454-575 190 0 278 113 318 202h10v-560h300V0H868v-179h-15C812-89 719 19 537 19zm92-241c153 0 240-134 240-336 0-203-86-334-240-334-158 0-240 138-240 334 0 197 84 336 240 336" id="bg"/><g id="C"><use transform="matrix(0.008680555555555556,0,0,0.008680555555555556,0,0)" xlink:href="#bb"/><use transform="matrix(0.008680555555555556,0,0,0.008680555555555556,11.206597222222223,0)" xlink:href="#bc"/><use transform="matrix(0.008680555555555556,0,0,0.008680555555555556,22.109375,0)" xlink:href="#bd"/><use transform="matrix(0.008680555555555556,0,0,0.008680555555555556,32.06597222222222,0)" xlink:href="#bd"/><use transform="matrix(0.008680555555555556,0,0,0.008680555555555556,42.02256944444444,0)" xlink:href="#be"/><use transform="matrix(0.008680555555555556,0,0,0.008680555555555556,46.84027777777778,0)" xlink:href="#bf"/><use transform="matrix(0.008680555555555556,0,0,0.008680555555555556,57.43055555555556,0)" xlink:href="#bg"/><use transform="matrix(0.008680555555555556,0,0,0.008680555555555556,68.63715277777779,0)" xlink:href="#bf"/></g><path fill="#333" d="M476-652l19-284-238 159-97-168 257-125-257-125 97-170 238 159-19-284h192l-18 284 238-159 95 170-255 125 255 125-95 168-238-159 18 284H476" id="bh"/><use transform="matrix(0.008680555555555556,0,0,0.008680555555555556,0,0)" xlink:href="#bh" id="D"/><path d="M750 21c-371 0-615-218-615-544v-967h305v942c0 174 123 299 310 299s309-125 309-299v-942h306v967c0 326-247 544-615 544" id="bi"/><g id="E"><use transform="matrix(0.010850694444444444,0,0,0.010850694444444444,0,0)" xlink:href="#bi"/><use transform="matrix(0.010850694444444444,0,0,0.010850694444444444,16.26519097222222,0)" xlink:href="#ag"/><use transform="matrix(0.010850694444444444,0,0,0.010850694444444444,24.186197916666664,0)" xlink:href="#ad"/><use transform="matrix(0.010850694444444444,0,0,0.010850694444444444,37.424045138888886,0)" xlink:href="#ae"/><use transform="matrix(0.010850694444444444,0,0,0.010850694444444444,51.25868055555556,0)" xlink:href="#ag"/><use transform="matrix(0.010850694444444444,0,0,0.010850694444444444,59.1796875,0)" xlink:href="#ad"/></g><g id="F"><use transform="matrix(0.010850694444444444,0,0,0.010850694444444444,0,0)" xlink:href="#az"/><use transform="matrix(0.010850694444444444,0,0,0.010850694444444444,11.729600694444445,0)" xlink:href="#as"/><use transform="matrix(0.010850694444444444,0,0,0.010850694444444444,24.68532986111111,0)" xlink:href="#aj"/><use transform="matrix(0.010850694444444444,0,0,0.010850694444444444,38.31380208333333,0)" xlink:href="#am"/><use transform="matrix(0.010850694444444444,0,0,0.010850694444444444,51.44314236111111,0)" xlink:href="#ai"/><use transform="matrix(0.010850694444444444,0,0,0.010850694444444444,63.92144097222221,0)" xlink:href="#aq"/><use transform="matrix(0.010850694444444444,0,0,0.010850694444444444,69.30338541666666,0)" xlink:href="#ai"/><use transform="matrix(0.010850694444444444,0,0,0.010850694444444444,81.78168402777777,0)" xlink:href="#au"/><use transform="matrix(0.010850694444444444,0,0,0.010850694444444444,89.88715277777777,0)" xlink:href="#ar"/><use transform="matrix(0.010850694444444444,0,0,0.010850694444444444,104.14496527777777,0)" xlink:href="#as"/><use transform="matrix(0.010850694444444444,0,0,0.010850694444444444,117.10069444444444,0)" xlink:href="#aj"/><use transform="matrix(0.010850694444444444,0,0,0.010850694444444444,130.72916666666666,0)" xlink:href="#am"/><use transform="matrix(0.010850694444444444,0,0,0.010850694444444444,143.85850694444443,0)" xlink:href="#ai"/><use transform="matrix(0.010850694444444444,0,0,0.010850694444444444,156.33680555555554,0)" xlink:href="#aq"/><use transform="matrix(0.010850694444444444,0,0,0.010850694444444444,161.71875,0)" xlink:href="#ai"/><use transform="matrix(0.010850694444444444,0,0,0.010850694444444444,174.19704861111111,0)" xlink:href="#at"/><use transform="matrix(0.010850694444444444,0,0,0.010850694444444444,186.46918402777777,0)" xlink:href="#ak"/><use transform="matrix(0.010850694444444444,0,0,0.010850694444444444,191.85112847222223,0)" xlink:href="#ap"/><use transform="matrix(0.010850694444444444,0,0,0.010850694444444444,205.17578125,0)" xlink:href="#am"/><use transform="matrix(0.010850694444444444,0,0,0.010850694444444444,218.30512152777777,0)" xlink:href="#as"/><use transform="matrix(0.010850694444444444,0,0,0.010850694444444444,231.0112847222222,0)" xlink:href="#av"/><use transform="matrix(0.010850694444444444,0,0,0.010850694444444444,239.1167534722222,0)" xlink:href="#aw"/></g><path d="M628 22C291 22 81-210 81-554c0-346 210-578 547-578 265 0 455 142 497 372l-279 52c-25-116-99-188-215-188-160 0-244 139-244 341 0 200 84 341 244 341 116 0 193-74 217-195l279 51C1085-123 896 22 628 22" id="bj"/><g id="G"><use transform="matrix(0.010850694444444444,0,0,0.010850694444444444,0,0)" xlink:href="#aG"/><use transform="matrix(0.010850694444444444,0,0,0.010850694444444444,14.55078125,0)" xlink:href="#ab"/><use transform="matrix(0.010850694444444444,0,0,0.010850694444444444,20.572916666666664,0)" xlink:href="#ae"/><use transform="matrix(0.010850694444444444,0,0,0.010850694444444444,34.40755208333333,0)" xlink:href="#af"/><use transform="matrix(0.010850694444444444,0,0,0.010850694444444444,48.41579861111111,0)" xlink:href="#aI"/><use transform="matrix(0.010850694444444444,0,0,0.010850694444444444,61.31727430555555,0)" xlink:href="#bj"/><use transform="matrix(0.010850694444444444,0,0,0.010850694444444444,74.3923611111111,0)" xlink:href="#aL"/></g><path d="M52 0l541-1490h220L1361 0h-200l-149-416H398L254 0H52zm404-582h497c-103-290-145-390-251-756-108 377-145 460-246 756" id="bk"/><g id="H"><use transform="matrix(0.010850694444444444,0,0,0.010850694444444444,0,0)" xlink:href="#aj"/><use transform="matrix(0.010850694444444444,0,0,0.010850694444444444,13.628472222222221,0)" xlink:href="#as"/><use transform="matrix(0.010850694444444444,0,0,0.010850694444444444,26.58420138888889,0)" xlink:href="#az"/><use transform="matrix(0.010850694444444444,0,0,0.010850694444444444,38.31380208333333,0)" xlink:href="#aA"/><use transform="matrix(0.010850694444444444,0,0,0.010850694444444444,45.58376736111111,0)" xlink:href="#ak"/><use transform="matrix(0.010850694444444444,0,0,0.010850694444444444,50.96571180555556,0)" xlink:href="#az"/><use transform="matrix(0.010850694444444444,0,0,0.010850694444444444,62.6953125,0)" xlink:href="#aB"/><use transform="matrix(0.010850694444444444,0,0,0.010850694444444444,75.390625,0)" xlink:href="#ak"/><use transform="matrix(0.010850694444444444,0,0,0.010850694444444444,80.77256944444444,0)" xlink:href="#bk"/><use transform="matrix(0.010850694444444444,0,0,0.010850694444444444,96.10460069444444,0)" xlink:href="#aF"/><use transform="matrix(0.010850694444444444,0,0,0.010850694444444444,115.57074652777777,0)" xlink:href="#aF"/><use transform="matrix(0.010850694444444444,0,0,0.010850694444444444,135.03689236111111,0)" xlink:href="#ak"/><use transform="matrix(0.010850694444444444,0,0,0.010850694444444444,140.41883680555557,0)" xlink:href="#am"/><use transform="matrix(0.010850694444444444,0,0,0.010850694444444444,153.54817708333334,0)" xlink:href="#ak"/><use transform="matrix(0.010850694444444444,0,0,0.010850694444444444,158.9301215277778,0)" xlink:href="#az"/><use transform="matrix(0.010850694444444444,0,0,0.010850694444444444,170.65972222222226,0)" xlink:href="#aA"/><use transform="matrix(0.010850694444444444,0,0,0.010850694444444444,177.92968750000003,0)" xlink:href="#aD"/><use transform="matrix(0.010850694444444444,0,0,0.010850694444444444,186.29557291666669,0)" xlink:href="#ai"/><use transform="matrix(0.010850694444444444,0,0,0.010850694444444444,198.7738715277778,0)" xlink:href="#at"/><use transform="matrix(0.010850694444444444,0,0,0.010850694444444444,211.04600694444449,0)" xlink:href="#ak"/><use transform="matrix(0.010850694444444444,0,0,0.010850694444444444,216.4279513888889,0)" xlink:href="#ap"/><use transform="matrix(0.010850694444444444,0,0,0.010850694444444444,229.75260416666669,0)" xlink:href="#am"/><use transform="matrix(0.010850694444444444,0,0,0.010850694444444444,242.88194444444449,0)" xlink:href="#as"/><use transform="matrix(0.010850694444444444,0,0,0.010850694444444444,255.83767361111111,0)" xlink:href="#ba"/><use transform="matrix(0.010850694444444444,0,0,0.010850694444444444,272.0703125,0)" xlink:href="#ap"/><use transform="matrix(0.010850694444444444,0,0,0.010850694444444444,285.39496527777777,0)" xlink:href="#aF"/><use transform="matrix(0.010850694444444444,0,0,0.010850694444444444,304.8611111111111,0)" xlink:href="#al"/><use transform="matrix(0.010850694444444444,0,0,0.010850694444444444,318.0013020833333,0)" xlink:href="#am"/><use transform="matrix(0.010850694444444444,0,0,0.010850694444444444,331.1306423611111,0)" xlink:href="#ai"/><use transform="matrix(0.010850694444444444,0,0,0.010850694444444444,343.6089409722222,0)" xlink:href="#aq"/><use transform="matrix(0.010850694444444444,0,0,0.010850694444444444,348.99088541666663,0)" xlink:href="#as"/><use transform="matrix(0.010850694444444444,0,0,0.010850694444444444,361.9466145833333,0)" xlink:href="#au"/><use transform="matrix(0.010850694444444444,0,0,0.010850694444444444,370.0520833333333,0)" xlink:href="#av"/></g><path fill="#333" d="M625 442c-280 0-454-114-503-274l258-72c28 63 97 128 243 128 153 0 246-69 246-216v-206h-23C805-108 717-16 536-16 284-16 81-191 81-561c0-378 208-571 456-571 188 0 280 113 321 202h13v-188h295V-9c0 303-226 451-541 451zm5-686c153 0 240-119 240-319 0-198-86-329-240-329-158 0-241 137-241 329 0 195 85 319 241 319" id="bl"/><path fill="#333" d="M683-1118v229H474v562c0 71 29 104 102 104 23 0 73-7 95-13l43 225C647 9 580 16 520 16 296 16 174-96 174-301v-588H20v-229h154v-266h300v266h209" id="bm"/><path fill="#333" d="M628 22C291 22 81-210 81-554c0-346 210-578 547-578 265 0 455 142 497 372l-279 52c-25-116-99-188-215-188-160 0-244 139-244 341 0 200 84 341 244 341 116 0 193-74 217-195l279 51C1085-123 896 22 628 22" id="bn"/><g id="I"><use transform="matrix(0.008680555555555556,0,0,0.008680555555555556,0,0)" xlink:href="#bl"/><use transform="matrix(0.008680555555555556,0,0,0.008680555555555556,11.23263888888889,0)" xlink:href="#bf"/><use transform="matrix(0.008680555555555556,0,0,0.008680555555555556,21.822916666666668,0)" xlink:href="#bd"/><use transform="matrix(0.008680555555555556,0,0,0.008680555555555556,31.779513888888893,0)" xlink:href="#bm"/><use transform="matrix(0.008680555555555556,0,0,0.008680555555555556,38.28993055555556,0)" xlink:href="#be"/><use transform="matrix(0.008680555555555556,0,0,0.008680555555555556,43.10763888888889,0)" xlink:href="#bd"/><use transform="matrix(0.008680555555555556,0,0,0.008680555555555556,53.064236111111114,0)" xlink:href="#bn"/><use transform="matrix(0.008680555555555556,0,0,0.008680555555555556,63.52430555555556,0)" xlink:href="#bf"/></g><path fill="#333" d="M749-1490V0H444v-1221h-10L93-980v-279l329-231h327" id="bo"/><path fill="#333" d="M342 19c-98 0-173-75-173-172s75-172 173-172 173 75 173 172S440 19 342 19" id="bp"/><g id="J"><use transform="matrix(0.008680555555555556,0,0,0.008680555555555556,0,0)" xlink:href="#bo"/><use transform="matrix(0.008680555555555556,0,0,0.008680555555555556,7.664930555555556,0)" xlink:href="#bp"/><use transform="matrix(0.008680555555555556,0,0,0.008680555555555556,13.602430555555555,0)" xlink:href="#bp"/><use transform="matrix(0.008680555555555556,0,0,0.008680555555555556,19.539930555555557,0)" xlink:href="#bh"/></g><path d="M572 22C302 22 117-98 78-306l279-48c29 105 101 156 224 156 114 0 185-48 185-115 0-118-228-130-337-155-215-49-322-150-322-317 0-215 187-347 470-347 265 0 424 116 466 298l-266 47c-24-76-87-130-196-130-98 0-174 46-174 113 0 56 38 95 144 117l201 40c216 44 320 143 320 302 0 220-207 367-500 367" id="bq"/><g id="K"><use transform="matrix(0.010850694444444444,0,0,0.010850694444444444,0,0)" xlink:href="#aN"/><use transform="matrix(0.010850694444444444,0,0,0.010850694444444444,14.214409722222221,0)" xlink:href="#ad"/><use transform="matrix(0.010850694444444444,0,0,0.010850694444444444,27.452256944444443,0)" xlink:href="#aO"/><use transform="matrix(0.010850694444444444,0,0,0.010850694444444444,36.50173611111111,0)" xlink:href="#bq"/><use transform="matrix(0.010850694444444444,0,0,0.010850694444444444,48.947482638888886,0)" xlink:href="#aL"/><use transform="matrix(0.010850694444444444,0,0,0.010850694444444444,62.57595486111111,0)" xlink:href="#ae"/><use transform="matrix(0.010850694444444444,0,0,0.010850694444444444,76.41059027777777,0)" xlink:href="#aI"/></g><g id="L"><use transform="matrix(0.010850694444444444,0,0,0.010850694444444444,0,0)" xlink:href="#al"/><use transform="matrix(0.010850694444444444,0,0,0.010850694444444444,13.140190972222221,0)" xlink:href="#az"/><use transform="matrix(0.010850694444444444,0,0,0.010850694444444444,24.869791666666664,0)" xlink:href="#as"/><use transform="matrix(0.010850694444444444,0,0,0.010850694444444444,37.82552083333333,0)" xlink:href="#aD"/><use transform="matrix(0.010850694444444444,0,0,0.010850694444444444,46.53862847222221,0)" xlink:href="#am"/><use transform="matrix(0.010850694444444444,0,0,0.010850694444444444,59.667968749999986,0)" xlink:href="#ai"/><use transform="matrix(0.010850694444444444,0,0,0.010850694444444444,72.1462673611111,0)" xlink:href="#aF"/><use transform="matrix(0.010850694444444444,0,0,0.010850694444444444,91.61241319444441,0)" xlink:href="#as"/><use transform="matrix(0.010850694444444444,0,0,0.010850694444444444,104.56814236111111,0)" xlink:href="#aw"/></g><path d="M409 0L70-1118h191c89 329 165 560 243 925 75-353 154-601 240-925h192c85 325 161 564 235 922 77-354 157-598 244-922h191L1267 0h-179c-86-307-176-590-250-913C763-588 675-308 588 0H409" id="br"/><g id="M"><use transform="matrix(0.010850694444444444,0,0,0.010850694444444444,0,0)" xlink:href="#ao"/><use transform="matrix(0.010850694444444444,0,0,0.010850694444444444,13.823784722222221,0)" xlink:href="#ai"/><use transform="matrix(0.010850694444444444,0,0,0.010850694444444444,26.302083333333332,0)" xlink:href="#az"/><use transform="matrix(0.010850694444444444,0,0,0.010850694444444444,38.03168402777778,0)" xlink:href="#az"/><use transform="matrix(0.010850694444444444,0,0,0.010850694444444444,49.76128472222222,0)" xlink:href="#br"/><use transform="matrix(0.010850694444444444,0,0,0.010850694444444444,67.54557291666667,0)" xlink:href="#ap"/><use transform="matrix(0.010850694444444444,0,0,0.010850694444444444,80.87022569444444,0)" xlink:href="#aD"/><use transform="matrix(0.010850694444444444,0,0,0.010850694444444444,88.8671875,0)" xlink:href="#ay"/><use transform="matrix(0.010850694444444444,0,0,0.010850694444444444,102.47395833333333,0)" xlink:href="#aw"/></g><g id="N"><use transform="matrix(0.010850694444444444,0,0,0.010850694444444444,0,0)" xlink:href="#aB"/><use transform="matrix(0.010850694444444444,0,0,0.010850694444444444,12.6953125,0)" xlink:href="#ap"/><use transform="matrix(0.010850694444444444,0,0,0.010850694444444444,26.01996527777778,0)" xlink:href="#aF"/><use transform="matrix(0.010850694444444444,0,0,0.010850694444444444,45.48611111111111,0)" xlink:href="#al"/><use transform="matrix(0.010850694444444444,0,0,0.010850694444444444,58.62630208333333,0)" xlink:href="#am"/><use transform="matrix(0.010850694444444444,0,0,0.010850694444444444,71.75564236111111,0)" xlink:href="#ak"/><use transform="matrix(0.010850694444444444,0,0,0.010850694444444444,77.13758680555556,0)" xlink:href="#aw"/></g><g id="O"><use transform="matrix(0.010850694444444444,0,0,0.010850694444444444,0,0)" xlink:href="#aq"/><use transform="matrix(0.010850694444444444,0,0,0.010850694444444444,5.381944444444445,0)" xlink:href="#ak"/><use transform="matrix(0.010850694444444444,0,0,0.010850694444444444,10.76388888888889,0)" xlink:href="#az"/><use transform="matrix(0.010850694444444444,0,0,0.010850694444444444,22.493489583333336,0)" xlink:href="#aA"/><use transform="matrix(0.010850694444444444,0,0,0.010850694444444444,29.134114583333336,0)" xlink:href="#aT"/><use transform="matrix(0.010850694444444444,0,0,0.010850694444444444,43.83680555555556,0)" xlink:href="#az"/><use transform="matrix(0.010850694444444444,0,0,0.010850694444444444,55.56640625,0)" xlink:href="#aA"/><use transform="matrix(0.010850694444444444,0,0,0.010850694444444444,62.83637152777778,0)" xlink:href="#aD"/><use transform="matrix(0.010850694444444444,0,0,0.010850694444444444,71.54947916666667,0)" xlink:href="#ak"/><use transform="matrix(0.010850694444444444,0,0,0.010850694444444444,76.93142361111111,0)" xlink:href="#am"/><use transform="matrix(0.010850694444444444,0,0,0.010850694444444444,90.06076388888889,0)" xlink:href="#aj"/><use transform="matrix(0.010850694444444444,0,0,0.010850694444444444,103.68923611111111,0)" xlink:href="#aU"/></g><path fill="#333" d="M681 22C323 22 94-145 85-462h297c10 151 131 226 296 226 163 0 271-77 271-190 0-102-95-149-257-189l-164-41c-252-61-403-188-403-405 0-269 236-449 560-449 330 0 546 183 551 445H941c-11-119-106-188-259-188-156 0-244 72-244 172-3 156 226 185 373 221 250 61 445 186 445 436 0 271-213 446-575 446" id="bs"/><path fill="#333" d="M440 22C227 22 68-92 68-313c0-250 202-322 422-343 195-21 271-24 271-105 0-95-63-149-175-149-116 0-187 57-211 129l-275-46c57-194 237-305 487-305 240 0 474 108 474 379V0H777v-155h-10C713-51 605 22 440 22zm85-211c140 0 238-93 238-211v-121c-37 26-156 42-222 51-111 16-185 59-185 149 0 87 70 132 169 132" id="bt"/><g id="P"><use transform="matrix(0.008680555555555556,0,0,0.008680555555555556,0,0)" xlink:href="#bl"/><use transform="matrix(0.008680555555555556,0,0,0.008680555555555556,11.23263888888889,0)" xlink:href="#bf"/><use transform="matrix(0.008680555555555556,0,0,0.008680555555555556,21.822916666666668,0)" xlink:href="#bd"/><use transform="matrix(0.008680555555555556,0,0,0.008680555555555556,31.779513888888893,0)" xlink:href="#bm"/><use transform="matrix(0.008680555555555556,0,0,0.008680555555555556,38.28993055555556,0)" xlink:href="#be"/><use transform="matrix(0.008680555555555556,0,0,0.008680555555555556,43.10763888888889,0)" xlink:href="#bd"/><use transform="matrix(0.008680555555555556,0,0,0.008680555555555556,53.064236111111114,0)" xlink:href="#bn"/><use transform="matrix(0.008680555555555556,0,0,0.008680555555555556,63.52430555555556,0)" xlink:href="#bf"/><use transform="matrix(0.008680555555555556,0,0,0.008680555555555556,74.11458333333334,0)" xlink:href="#bs"/><use transform="matrix(0.008680555555555556,0,0,0.008680555555555556,85.75520833333334,0)" xlink:href="#bm"/><use transform="matrix(0.008680555555555556,0,0,0.008680555555555556,92.35243055555557,0)" xlink:href="#bt"/><use transform="matrix(0.008680555555555556,0,0,0.008680555555555556,102.67361111111113,0)" xlink:href="#bm"/><use transform="matrix(0.008680555555555556,0,0,0.008680555555555556,109.01041666666669,0)" xlink:href="#bc"/></g><g id="Q"><use transform="matrix(0.010850694444444444,0,0,0.010850694444444444,0,0)" xlink:href="#aX"/><use transform="matrix(0.010850694444444444,0,0,0.010850694444444444,16.438802083333332,0)" xlink:href="#aL"/><use transform="matrix(0.010850694444444444,0,0,0.010850694444444444,30.067274305555554,0)" xlink:href="#aQ"/><use transform="matrix(0.010850694444444444,0,0,0.010850694444444444,50.34722222222221,0)" xlink:href="#aQ"/><use transform="matrix(0.010850694444444444,0,0,0.010850694444444444,70.62717013888889,0)" xlink:href="#ad"/><use transform="matrix(0.010850694444444444,0,0,0.010850694444444444,83.86501736111111,0)" xlink:href="#ae"/><use transform="matrix(0.010850694444444444,0,0,0.010850694444444444,97.6996527777778,0)" xlink:href="#ag"/><use transform="matrix(0.010850694444444444,0,0,0.010850694444444444,105.62065972222224,0)" xlink:href="#aL"/></g><g id="R"><use transform="matrix(0.010850694444444444,0,0,0.010850694444444444,0,0)" xlink:href="#aA"/><use transform="matrix(0.010850694444444444,0,0,0.010850694444444444,7.052951388888888,0)" xlink:href="#as"/><use transform="matrix(0.010850694444444444,0,0,0.010850694444444444,20.008680555555554,0)" xlink:href="#az"/><use transform="matrix(0.010850694444444444,0,0,0.010850694444444444,31.73828125,0)" xlink:href="#aA"/><use transform="matrix(0.010850694444444444,0,0,0.010850694444444444,38.791232638888886,0)" xlink:href="#ap"/><use transform="matrix(0.010850694444444444,0,0,0.010850694444444444,52.115885416666664,0)" xlink:href="#aw"/></g><g id="S"><use transform="matrix(0.010850694444444444,0,0,0.010850694444444444,0,0)" xlink:href="#ai"/><use transform="matrix(0.010850694444444444,0,0,0.010850694444444444,12.47829861111111,0)" xlink:href="#al"/><use transform="matrix(0.010850694444444444,0,0,0.010850694444444444,25.618489583333332,0)" xlink:href="#aA"/><use transform="matrix(0.010850694444444444,0,0,0.010850694444444444,32.67144097222222,0)" xlink:href="#ap"/><use transform="matrix(0.010850694444444444,0,0,0.010850694444444444,45.99609375,0)" xlink:href="#aD"/><use transform="matrix(0.010850694444444444,0,0,0.010850694444444444,53.99305555555556,0)" xlink:href="#as"/><use transform="matrix(0.010850694444444444,0,0,0.010850694444444444,66.94878472222221,0)" xlink:href="#aw"/></g><g id="T"><use transform="matrix(0.010850694444444444,0,0,0.010850694444444444,0,0)" xlink:href="#ay"/><use transform="matrix(0.010850694444444444,0,0,0.010850694444444444,13.606770833333332,0)" xlink:href="#ai"/><use transform="matrix(0.010850694444444444,0,0,0.010850694444444444,26.085069444444443,0)" xlink:href="#aA"/><use transform="matrix(0.010850694444444444,0,0,0.010850694444444444,33.463541666666664,0)" xlink:href="#ai"/><use transform="matrix(0.010850694444444444,0,0,0.010850694444444444,45.94184027777778,0)" xlink:href="#aw"/></g><g id="U"><use transform="matrix(0.010850694444444444,0,0,0.010850694444444444,0,0)" xlink:href="#ay"/><use transform="matrix(0.010850694444444444,0,0,0.010850694444444444,13.606770833333332,0)" xlink:href="#ai"/><use transform="matrix(0.010850694444444444,0,0,0.010850694444444444,26.085069444444443,0)" xlink:href="#aA"/><use transform="matrix(0.010850694444444444,0,0,0.010850694444444444,33.13802083333333,0)" xlink:href="#as"/><use transform="matrix(0.010850694444444444,0,0,0.010850694444444444,46.093749999999986,0)" xlink:href="#aA"/><use transform="matrix(0.010850694444444444,0,0,0.010850694444444444,53.36371527777778,0)" xlink:href="#ak"/><use transform="matrix(0.010850694444444444,0,0,0.010850694444444444,58.74565972222221,0)" xlink:href="#aF"/><use transform="matrix(0.010850694444444444,0,0,0.010850694444444444,78.21180555555554,0)" xlink:href="#as"/></g><path fill="#333" d="M690 20C314 20 94-261 94-744c0-482 221-766 596-766 376 0 597 284 597 766 0 483-219 764-597 764zm0-253c184 0 286-184 286-511 0-328-102-514-286-514-183 0-285 187-285 514s101 511 285 511" id="bu"/><g id="V"><use transform="matrix(0.008680555555555556,0,0,0.008680555555555556,0,0)" xlink:href="#bu"/><use transform="matrix(0.008680555555555556,0,0,0.008680555555555556,11.46701388888889,0)" xlink:href="#bp"/><use transform="matrix(0.008680555555555556,0,0,0.008680555555555556,17.40451388888889,0)" xlink:href="#bp"/><use transform="matrix(0.008680555555555556,0,0,0.008680555555555556,23.34201388888889,0)" xlink:href="#bh"/></g><g id="W"><use transform="matrix(0.008680555555555556,0,0,0.008680555555555556,0,0)" xlink:href="#bo"/><use transform="matrix(0.008680555555555556,0,0,0.008680555555555556,7.664930555555556,0)" xlink:href="#bp"/><use transform="matrix(0.008680555555555556,0,0,0.008680555555555556,13.602430555555555,0)" xlink:href="#bp"/><use transform="matrix(0.008680555555555556,0,0,0.008680555555555556,17.93402777777778,0)" xlink:href="#bo"/></g><path fill="#333" d="M428-647V0H128v-1490h294v586c65-146 175-228 341-228 232 0 385 159 385 421V0H847v-659c0-139-76-222-202-222-128 0-217 86-217 234" id="bv"/><g id="X"><use transform="matrix(0.008680555555555556,0,0,0.008680555555555556,0,0)" xlink:href="#bv"/><use transform="matrix(0.008680555555555556,0,0,0.008680555555555556,11.067708333333334,0)" xlink:href="#bt"/></g><path fill="#333" d="M128 0v-1118h290v195h12c54-169 184-238 367-200v268c-27-8-86-15-130-15-138 0-239 95-239 234V0H128" id="bw"/><path fill="#333" d="M443 0L31-1118h319c90 293 199 572 268 885 66-313 175-593 264-885h315L784 0H443" id="bx"/><g id="Y"><use transform="matrix(0.008680555555555556,0,0,0.008680555555555556,0,0)" xlink:href="#bd"/><use transform="matrix(0.008680555555555556,0,0,0.008680555555555556,9.956597222222223,0)" xlink:href="#bn"/><use transform="matrix(0.008680555555555556,0,0,0.008680555555555556,20.416666666666668,0)" xlink:href="#bw"/><use transform="matrix(0.008680555555555556,0,0,0.008680555555555556,27.786458333333336,0)" xlink:href="#be"/><use transform="matrix(0.008680555555555556,0,0,0.008680555555555556,32.60416666666667,0)" xlink:href="#bx"/><use transform="matrix(0.008680555555555556,0,0,0.008680555555555556,42.942708333333336,0)" xlink:href="#bf"/></g><g id="Z"><use transform="matrix(0.008680555555555556,0,0,0.008680555555555556,0,0)" xlink:href="#bx"/><use transform="matrix(0.008680555555555556,0,0,0.008680555555555556,10.338541666666668,0)" xlink:href="#bc"/><use transform="matrix(0.008680555555555556,0,0,0.008680555555555556,21.241319444444446,0)" xlink:href="#bm"/><use transform="matrix(0.008680555555555556,0,0,0.008680555555555556,27.83854166666667,0)" xlink:href="#bt"/></g></defs></g></svg>