<svg xmlns="http://www.w3.org/2000/svg" xmlns:xlink="http://www.w3.org/1999/xlink" xmlns:lucid="lucid" width="1321" height="1503"><g transform="translate(-119.5 81)" lucid:page-tab-id="0_0"><path d="M380-74a6 6 0 0 1 6-6h768a6 6 0 0 1 6 6v1188a6 6 0 0 1-6 6H386a6 6 0 0 1-6-6z" stroke="#000" stroke-width="2" fill-opacity="0"/><use xlink:href="#a" transform="matrix(1,0,0,1,388,-72) translate(334.34375 21.52777777777778)"/><path d="M180.25 399.95v-.2A19.75 19.75 0 0 1 200 380a19.75 19.75 0 0 1 19.75 19.75A19.75 19.75 0 0 1 200 419.5a19.75 19.75 0 0 1-19.75-19.75v-.2" stroke="#000" stroke-width="2" fill="#fff"/><path d="M160 386a6 6 0 0 1 6-6h68a6 6 0 0 1 6 6v146a6 6 0 0 1-6 6h-68a6 6 0 0 1-6-6z" fill="none"/><path d="M200 419.5v55.3l40 63.2m-40-63.2L160 538m0-98.75h80" stroke="#000" stroke-width="2" fill="none"/><use xlink:href="#b" transform="matrix(1,0,0,1,80,538) translate(85.15842013888889 21.52777777777778)"/><path d="M1295.25 579.95v-.2A19.75 19.75 0 0 1 1315 560a19.75 19.75 0 0 1 19.75 19.75A19.75 19.75 0 0 1 1315 599.5a19.75 19.75 0 0 1-19.75-19.75v-.2" stroke="#000" stroke-width="2" fill="#fff"/><path d="M1275 566a6 6 0 0 1 6-6h68a6 6 0 0 1 6 6v146a6 6 0 0 1-6 6h-68a6 6 0 0 1-6-6z" fill="none"/><path d="M1315 599.5v55.3l40 63.2m-40-63.2l-40 63.2m0-98.75h80" stroke="#000" stroke-width="2" fill="none"/><use xlink:href="#c" transform="matrix(1,0,0,1,1195,718) translate(6.539713541666657 21.52777777777778)"/><path d="M625.25 160c0 22.1-38.62 40-86.25 40s-86.25-17.9-86.25-40 38.62-40 86.25-40 86.25 17.9 86.25 40z" stroke="#000" stroke-width="2" fill="#fff"/><use xlink:href="#d" transform="matrix(1,0,0,1,452.75,120) translate(33.256596679687505 36.216875)"/><use xlink:href="#e" transform="matrix(1,0,0,1,452.75,120) translate(49.2854736328125 56.47162109375)"/><path d="M621.5 465.63c0 22.43-36.38 40.62-81.25 40.62S459 488.05 459 465.62c0-22.43 36.38-40.62 81.25-40.62s81.25 18.2 81.25 40.63z" stroke="#000" stroke-width="2" fill="#fff"/><use xlink:href="#f" transform="matrix(1,0,0,1,459,425) translate(48.21160156249999 25.226875)"/><use xlink:href="#g" transform="matrix(1,0,0,1,459,425) translate(104.39849609375 25.226875)"/><use xlink:href="#h" transform="matrix(1,0,0,1,459,425) translate(34.2547900390625 45.48162109375)"/><use xlink:href="#i" transform="matrix(1,0,0,1,459,425) translate(88.9540478515625 45.48162109375)"/><use xlink:href="#j" transform="matrix(1,0,0,1,459,425) translate(107.9663720703125 45.48162109375)"/><use xlink:href="#e" transform="matrix(1,0,0,1,459,425) translate(43.785473632812504 65.73636718750001)"/><path d="M1115.43 420.63c0 22.43-36.38 40.62-81.25 40.62-44.88 0-81.25-18.2-81.25-40.63 0-22.43 36.37-40.62 81.25-40.62 44.87 0 81.25 18.2 81.25 40.63z" stroke="#000" stroke-width="2" fill="#fff"/><use xlink:href="#k" transform="matrix(1,0,0,1,952.9265334019085,380) translate(52.80529296875 25.226875)"/><use xlink:href="#l" transform="matrix(1,0,0,1,952.9265334019085,380) translate(37.503886718749996 45.48162109375)"/><use xlink:href="#m" transform="matrix(1,0,0,1,952.9265334019085,380) translate(110.20191406250001 45.48162109375)"/><use xlink:href="#e" transform="matrix(1,0,0,1,952.9265334019085,380) translate(43.785473632812504 65.73636718750001)"/><path d="M1288.2 617.95L1077.87 456.3M1288.18 617.94l2.8 2.14" stroke="#3a414a" fill="none"/><path d="M1078.18 455.93l-.58.76-.67-.53 1.1-.35z" stroke="#3a414a" stroke-width=".05" fill="#3a414a"/><path d="M223.66 437.92l275.07-241.1M223.67 437.9l-2.65 2.33" stroke="#3a414a" fill="none"/><path d="M499.65 196.63l-.62.55-.63-.7.15-.14z" stroke="#3a414a" stroke-width=".05" fill="#3a414a"/><path d="M201.5 458.8l256.03 7.87M201.5 458.8l-3.5-.1" stroke="#3a414a" fill="none"/><path d="M458 466.2v.13l.06.83-.55-.02.04-.95z" stroke="#3a414a" stroke-width=".05" fill="#3a414a"/><path d="M1115.43 530.63c0 22.43-36.38 40.62-81.25 40.62-44.88 0-81.25-18.2-81.25-40.63 0-22.43 36.37-40.62 81.25-40.62 44.87 0 81.25 18.2 81.25 40.63z" stroke="#000" stroke-width="2" fill="#fff"/><use xlink:href="#k" transform="matrix(1,0,0,1,952.9265334019085,490) translate(52.80529296875 25.226875)"/><use xlink:href="#n" transform="matrix(1,0,0,1,952.9265334019085,490) translate(37.646928710937495 45.48162109375)"/><use xlink:href="#o" transform="matrix(1,0,0,1,952.9265334019085,490) translate(56.446733398437495 45.48162109375)"/><use xlink:href="#p" transform="matrix(1,0,0,1,952.9265334019085,490) translate(100.2993212890625 45.48162109375)"/><use xlink:href="#q" transform="matrix(1,0,0,1,952.9265334019085,490) translate(46.458315429687495 65.73636718750001)"/><path d="M1313.53 638.2l-215.87-80.6M1313.52 638.2l3.3 1.23" stroke="#3a414a" fill="none"/><path d="M1097.84 557.15l-.33.9-.82-.32 1.02-.63z" stroke="#3a414a" stroke-width=".05" fill="#3a414a"/><path d="M727.62 702.53c0 23.5-38.1 42.53-85.06 42.53-46.98 0-85.06-19.04-85.06-42.53 0-23.5 38.08-42.53 85.06-42.53 46.98 0 85.06 19.04 85.06 42.53z" stroke="#000" stroke-width="2" fill="#fff"/><use xlink:href="#r" transform="matrix(1,0,0,1,557.5,660) translate(37.245322265625 31.226875)"/><use xlink:href="#s" transform="matrix(1,0,0,1,557.5,660) translate(38.73704589843749 51.48162109375)"/><use xlink:href="#t" transform="matrix(1,0,0,1,557.5,660) translate(112.5385400390625 51.48162109375)"/><use xlink:href="#u" transform="matrix(1,0,0,1,557.5,660) translate(57.941455078124996 71.73636718750001)"/><path d="M582.4 670.9L201.43 459.56" stroke="#3a414a" fill="none"/><path d="M583.36 670.9l-.64.3-.4.2-.18-.1.47-.82z" stroke="#3a414a" stroke-width=".05" fill="#3a414a"/><path d="M201.45 459.57l-3.07-1.7" stroke="#3a414a" fill="none"/><path d="M842.5 560.63c0 22.43-36.38 40.62-81.25 40.62S680 583.05 680 560.62c0-22.43 36.38-40.62 81.25-40.62s81.25 18.2 81.25 40.63z" stroke="#000" stroke-width="2" fill="#fff"/><use xlink:href="#r" transform="matrix(1,0,0,1,680,520) translate(33.24532226562499 36.716875)"/><use xlink:href="#q" transform="matrix(1,0,0,1,680,520) translate(46.9583154296875 56.97162109375)"/><path d="M682.43 547.4l-.17.94L201.4 459.5l.18-.93z" stroke="#3a414a" stroke-width=".05" fill="#3a414a"/><path d="M201.6 458.57l-.18.94-3.46-.63.18-.93z" stroke="#3a414a" stroke-width=".05" fill="#3a414a"/><path d="M683.13 547.53l-.37.55-.18.32-.33-.06.17-.94z" fill="#3a414a"/><path stroke="#3a414a" stroke-width=".05" fill="#3a414a"/><path d="M690.03 529.5l-.37.87-1.8-.78.37-.88zm-5.4-2.33l-.37.88-3.6-1.55.37-.88zm-7.2-3.1l-.37.88-3.6-1.55.37-.87zm-7.2-3.1l-.37.88-2.32-1h2.4zm-50.4-21.66l-.02.05h-2.3l-1.65-.7.38-.88zm-7.2-3.08l-.38.87-3.6-1.56.38-.87zm-7.2-3.1l-.38.88-1.8-.78.38-.87z" stroke="#3a414a" stroke-width=".05" fill="#3a414a"/><path d="M603.64 492.36l-.38.87-.77-.34.97-.6z" fill="#3a414a"/><path stroke="#3a414a" stroke-width=".05" fill="#3a414a"/><path d="M698.48 533.64l-20.68 2.44-.12-.94 18.1-2.14-6.17-2.65.38-.88 6.18 2.66-8.4-11.27h1.17z" stroke="#3a414a" stroke-width=".05" fill="#3a414a"/><use xlink:href="#v" transform="matrix(1,0,0,1,587.5735914879866,499.3475987165554) translate(0 17.22222222222222)"/><path d="M678.05 660.83l-1.3 1.56-.73-.62 1.3-1.55zm5.2-6.2l-2.6 3.1-.73-.6 2.6-3.12zm5.2-6.22l-2.6 3.12-.73-.6 2.46-2.96h.33zm20.78-24.84l-2.42 2.9h-.43l-.47-.4 2.6-3.1zm5.2-6.2l-2.6 3.1-.73-.6 2.6-3.12zm5.2-6.22l-2.6 3.1-.74-.6 2.6-3.1zm3.9-4.66l-1.3 1.55-.74-.6 1.3-1.56z" stroke="#3a414a" stroke-width=".05" fill="#3a414a"/><path d="M676.76 662.38l-.16.2-1.06-.22.5-.6z" fill="#3a414a"/><path stroke="#3a414a" stroke-width=".05" fill="#3a414a"/><path d="M725.6 619.48l-.94-.16 3.14-17.96-4.32 5.16-.73-.6 4.32-5.17-17.12 6.26-.33-.88 19.56-7.15z" stroke="#3a414a" stroke-width=".05" fill="#3a414a"/><use xlink:href="#v" transform="matrix(1,0,0,1,641.050435289952,626.4507339829999) translate(0 17.22222222222222)"/><path d="M201.34 460.2l281.02 302.67M201.35 460.22l-2.4-2.58" stroke="#3a414a" fill="none"/><path d="M483.23 763.1l-1.05.27-.17-.2.7-.63z" stroke="#3a414a" stroke-width=".05" fill="#3a414a"/><path d="M700.25 1259.95v-.2A19.75 19.75 0 0 1 720 1240a19.75 19.75 0 0 1 19.75 19.75A19.75 19.75 0 0 1 720 1279.5a19.75 19.75 0 0 1-19.75-19.75v-.2" stroke="#000" stroke-width="2" fill="#fff"/><path d="M680 1246a6 6 0 0 1 6-6h68a6 6 0 0 1 6 6v146a6 6 0 0 1-6 6h-68a6 6 0 0 1-6-6z" fill="none"/><path d="M720 1279.5v55.3l40 63.2m-40-63.2l-40 63.2m0-98.75h80" stroke="#000" stroke-width="2" fill="none"/><use xlink:href="#w" transform="matrix(1,0,0,1,600,1398) translate(76.97157118055556 21.52777777777778)"/><path d="M1253.5 298.8l-139.3 6.1M1253.5 298.8l3.5-.15" stroke="#3a414a" fill="none"/><path d="M1114.24 305.37l-.6.02.13-.86v-.1l.43-.02z" stroke="#3a414a" stroke-width=".05" fill="#3a414a"/><path d="M1259.28 323.78l38.13 217.68M1259.28 323.8l-.6-3.47" stroke="#3a414a" fill="none"/><path d="M1301.23 563.28l-16.05-19.17 24.63-4.3z" stroke="#3a414a" fill="#fff"/><path d="M812.85 1035.27c0 22.1-38.62 40-86.25 40-47.64 0-86.25-17.9-86.25-40s38.6-40 86.25-40c47.63 0 86.25 17.9 86.25 40z" stroke="#000" stroke-width="2" fill="#fff"/><use xlink:href="#x" transform="matrix(1,0,0,1,640.3464148497044,995.2666193937263) translate(58.4142431640625 46.216875)"/><path d="M735.22 1297.85l163.5-223.27M735.23 1297.84l-2.08 2.83" stroke="#3a414a" fill="none"/><path d="M899.55 1074.26l-.45.6-.77-.55.16-.2zM1435 645.64l1 .24.94.4.87.52.78.66.66.77.53.87.4.93.23 1 .07 1v663.94l-.07 1-.24.98-.4.94-.52.85-.66.78-.77.66-.86.52-.94.4-1 .22-.98.08H735.5v-.95h698.48l.88-.07.85-.2.8-.33.75-.45.66-.57.57-.66.45-.75.33-.8.2-.84.08-.87V652.05l-.07-.88-.2-.84-.34-.8-.45-.74-.56-.67-.65-.56-.74-.46-.8-.32-.84-.2-.88-.07H1316.5v-.94h117.52z" stroke="#3a414a" stroke-width=".05" fill="#3a414a"/><path d="M1316.5 646.5h-3.5v-.94h3.5z" stroke="#3a414a" stroke-width=".05" fill="#3a414a"/><path d="M735 1329.45l-13-7.5 13-7.5z" fill="#fff"/><path d="M735.47 1330.27l-14.42-8.32 14.42-8.33zm-12.52-8.32l11.56 6.67v-13.35z" stroke="#3a414a" stroke-width=".05" fill="#3a414a"/><path d="M704.63 1297.85L543 1079.28M704.63 1297.84l2.08 2.82" stroke="#3a414a" fill="none"/><path d="M543.38 1079l-.76.57-.45-.6 1.06-.17z" stroke="#3a414a" stroke-width=".05" fill="#3a414a"/><path d="M1235.25 239.95v-.2A19.75 19.75 0 0 1 1255 220a19.75 19.75 0 0 1 19.75 19.75A19.75 19.75 0 0 1 1255 259.5a19.75 19.75 0 0 1-19.75-19.75v-.2" stroke="#000" stroke-width="2" fill="#fff"/><path d="M1215 226a6 6 0 0 1 6-6h68a6 6 0 0 1 6 6v146a6 6 0 0 1-6 6h-68a6 6 0 0 1-6-6z" fill="none"/><path d="M1255 259.5v55.3l40 63.2m-40-63.2l-40 63.2m0-98.75h80" stroke="#000" stroke-width="2" fill="none"/><use xlink:href="#y" transform="matrix(1,0,0,1,1135,378) translate(77.56293402777777 21.52777777777778)"/><path d="M1112.93 301.88c0 23.12-37.5 41.87-83.75 41.87-46.26 0-83.75-18.75-83.75-41.88 0-23.12 37.5-41.87 83.75-41.87s83.75 18.75 83.75 41.88z" stroke="#000" stroke-width="2" fill="#fff"/><use xlink:href="#z" transform="matrix(1,0,0,1,945.4265334019083,260) translate(48.3534521484375 37.216875)"/><use xlink:href="#A" transform="matrix(1,0,0,1,945.4265334019083,260) translate(42.1876953125 57.47162109375)"/><path d="M721.86 1238.73l3.8-162" stroke="#3a414a" fill="none"/><path d="M722.34 1238.72l-.02.57-.94-.13v-.47zM726.15 1076.25v.5h-.96v-.52zM198.5 470.48h-72.48l-.88.06-.85.2-.8.34-.75.45-.66.56-.57.65-.45.74-.33.8-.2.84-.08.88v839.23l.07.88.2.84.34.8.45.74.56.67.65.56.74.46.8.32.84.2.88.07h578.5v.94H125.97l-1-.08-.98-.24-.94-.38-.87-.53-.78-.65-.66-.78-.53-.86-.4-.93-.23-1-.07-1v-839.3l.07-.98.24-1 .4-.94.52-.87.66-.78.77-.66.86-.53.94-.4 1-.23.98-.08h72.52z" stroke="#3a414a" stroke-width=".05" fill="#3a414a"/><path d="M202 470.48h-3.5v-.96h3.5z" stroke="#3a414a" stroke-width=".05" fill="#3a414a"/><path d="M718 1321.27l-13 7.5v-15z" fill="#fff"/><path d="M718.95 1321.27l-14.42 8.32v-16.66zm-13.47 6.67l11.57-6.67-11.56-6.68z" stroke="#3a414a" stroke-width=".05" fill="#3a414a"/><path d="M600 800.63c0 22.43-36.38 40.62-81.25 40.62s-81.25-18.2-81.25-40.63c0-22.43 36.38-40.62 81.25-40.62S600 778.2 600 800.63z" stroke="#000" stroke-width="2" fill="#fff"/><use xlink:href="#B" transform="matrix(1,0,0,1,437.5,760) translate(35.701557617187504 36.716875)"/><use xlink:href="#g" transform="matrix(1,0,0,1,437.5,760) translate(116.9085400390625 36.716875)"/><use xlink:href="#C" transform="matrix(1,0,0,1,437.5,760) translate(49.5984619140625 56.97162109375)"/><path d="M601.5 1040c0 22.1-38.62 40-86.25 40S429 1062.1 429 1040s38.62-40 86.25-40 86.25 17.9 86.25 40z" stroke="#000" stroke-width="2" fill="#fff"/><use xlink:href="#D" transform="matrix(1,0,0,1,429,1000) translate(64.14818359375 46.216875)"/><path d="M1012.5 1035.27c0 22.1-38.62 40-86.25 40s-86.25-17.9-86.25-40 38.62-40 86.25-40 86.25 17.9 86.25 40z" stroke="#000" stroke-width="2" fill="#fff"/><use xlink:href="#E" transform="matrix(1,0,0,1,840,995.2666193937262) translate(32.200776367187494 46.216875)"/><path d="M1313.5 638.56l-473.34-65.2M1313.5 638.56l3.47.48" stroke="#3a414a" fill="none"/><path d="M840.24 572.88l-.13.94-.73-.1.37-.55.2-.33zM1313.55 639.38L728.17 696.3l-.1-.94 585.4-56.92z" stroke="#3a414a" stroke-width=".05" fill="#3a414a"/><path d="M1317.03 639.04l-3.5.35-.1-.96 3.5-.34z" stroke="#3a414a" stroke-width=".05" fill="#3a414a"/><path d="M728.18 696.3l-.42.05-.03-.15-.25-.78.6-.06z" fill="#3a414a"/><path stroke="#3a414a" stroke-width=".05" fill="#3a414a"/><path d="M625.25 266.25c0 22.1-38.62 40-86.25 40s-86.25-17.9-86.25-40 38.62-40 86.25-40 86.25 17.9 86.25 40z" stroke="#000" stroke-width="2" fill="#fff"/><use xlink:href="#z" transform="matrix(1,0,0,1,452.75,226.25) translate(51.353452148437505 28.716875)"/><use xlink:href="#F" transform="matrix(1,0,0,1,452.75,226.25) translate(16.47024414062499 48.97162109375)"/><use xlink:href="#G" transform="matrix(1,0,0,1,452.75,226.25) translate(120.065341796875 48.97162109375)"/><path d="M892.5 200c0 22.1-38.62 40-86.25 40S720 222.1 720 200s38.62-40 86.25-40 86.25 17.9 86.25 40z" stroke="#000" stroke-width="2" fill="#fff"/><use xlink:href="#H" transform="matrix(1,0,0,1,720,160) translate(36.92255859375 36.216875)"/><use xlink:href="#I" transform="matrix(1,0,0,1,720,160) translate(34.20884765625 56.47162109375)"/><path d="M892.5 340c0 22.1-38.62 40-86.25 40S720 362.1 720 340s38.62-40 86.25-40 86.25 17.9 86.25 40z" stroke="#000" stroke-width="2" fill="#fff"/><use xlink:href="#J" transform="matrix(1,0,0,1,720,300) translate(52.085009765625 36.216875)"/><use xlink:href="#I" transform="matrix(1,0,0,1,720,300) translate(34.20884765625 56.47162109375)"/><path d="M236.56 438l248.22-139.18M236.58 438l-3.07 1.72" stroke="#3a414a" fill="none"/><path d="M485.58 298.72l.22.07-.8.44-.46-.83.1-.05z" stroke="#3a414a" stroke-width=".05" fill="#3a414a"/><path d="M612.75 372.5c0 22.1-35.82 40-80 40s-80-17.9-80-40 35.82-40 80-40 80 17.9 80 40z" stroke="#000" stroke-width="2" fill="#fff"/><g><use xlink:href="#K" transform="matrix(1,0,0,1,452.75,332.5) translate(29.012573242187504 36.216875)"/><use xlink:href="#e" transform="matrix(1,0,0,1,452.75,332.5) translate(42.7854736328125 56.47162109375)"/></g><path d="M201.5 458.4l260.62-65.22M201.5 458.38l-3.4.86" stroke="#3a414a" fill="none"/><path d="M463.04 393.44l-.82.2-.23-.92.17-.05zM730.6 318.63l-.26.9-1.9-.5.24-.93zm-5.74-1.58l-.26.9-3.82-1.04.1-.4h2.03zM644.96 295h-.43l.03-.1zm-4.22-1.17l-.25.92-3.84-1.06.25-.92zm-7.65-2.1l-.26.9-3.82-1.05.25-.9zm-7.65-2.12l-.26.93-1.92-.53.25-.92z" stroke="#3a414a" stroke-width=".05" fill="#3a414a"/><path d="M731.4 318.85l-.9.73-.17-.04.25-.92z" fill="#3a414a"/><path stroke="#3a414a" stroke-width=".05" fill="#3a414a"/><path d="M634.74 282.72l-17.64 4.6 6.5 1.78-.26.92-6.5-1.8 11.18 11.35v1.35l-13.67-13.88 20.15-5.24z" stroke="#3a414a" stroke-width=".05" fill="#3a414a"/><g><use xlink:href="#L" transform="matrix(1,0,0,1,628.0226848960202,294.99957712544784) translate(0 17.22222222222222)"/></g><path d="M627.5 244.8l-1.98.5-.23-.93 1.98-.5zm7.94-1.97l-3.97 1-.23-.94 1.5-.38h2.62zm87.2-21.82h-3.13l2.96-.72zm6-1.27l-1.98.5-.23-.93 1.98-.5z" stroke="#3a414a" stroke-width=".05" fill="#3a414a"/><path d="M729.44 219.53l-.8.2-.24-.92.18-.04z" fill="#3a414a"/><path stroke="#3a414a" stroke-width=".05" fill="#3a414a"/><path d="M623.97 241.02l-5.15 4.95 6.53-1.6.23.9-6.53 1.63 17.5 5.04-.25.92-20-5.77 7.67-7.4z" stroke="#3a414a" stroke-width=".05" fill="#3a414a"/><g><use xlink:href="#L" transform="matrix(1,0,0,1,623.9652768327493,221.01325411899936) translate(0 17.22222222222222)"/></g><path d="M711.2 518.8l-.6.74-1.54-1.27.6-.73zm-4.6-3.8l-.62.74-3.07-2.53.6-.73zm-6.17-5.06l-.56.7v-1.17zm-12.86-10.6h-1.5l-1.62-1.33.6-.72zm-5.6-4.6l-.6.74-3.07-2.54.6-.73zm-6.14-5.06l-.6.73-3.1-2.52.62-.73zm-6.16-5.07l-.6.75-3.08-2.54.6-.72zm-6.15-5.05l-.6.73-3.08-2.53.6-.73zm-6.15-5.07l-.6.74-3.08-2.54.6-.73zm-6.15-5.06l-.6.73-3.08-2.53.6-.73zm-6.16-5.07l-.6.74-3.08-2.55.6-.73zm-6.15-5.06l-.6.72-3.07-2.53.6-.74zm-6.14-5.08l-.6.74-3.08-2.54.6-.73zm-6.15-5.06l-.6.73-3.07-2.54.6-.74zm-6.14-5.07l-.6.73-3.1-2.54.62-.74zm-6.16-5.07l-.6.73-3.08-2.53.6-.74zm-6.15-5.07l-.6.74-3.08-2.54.6-.73zM602 428.9l-.6.73-3.08-2.53.6-.74zm-6.15-5.07l-.6.74-3.08-2.54.6-.73zm-6.16-5.06l-.6.73-3.1-2.53.62-.74zm-6.16-5.07l-.6.74-3.08-2.54.6-.73zm-6.15-5.06l-.6.73-1.55-1.27.6-.73z" stroke="#3a414a" stroke-width=".05" fill="#3a414a"/><path d="M575.86 407.38l-.6.73-.65-.52 1.1-.32z" fill="#3a414a"/><path stroke="#3a414a" stroke-width=".05" fill="#3a414a"/><path d="M718.15 525.14l-20.54-3.42.15-.86h.5l17.5 2.92-5.2-4.28.6-.73 5.2 4.27-6.4-17.06.9-.34z" stroke="#3a414a" stroke-width=".05" fill="#3a414a"/><g><use xlink:href="#v" transform="matrix(1,0,0,1,630.1024004153091,433.28646685323247) translate(0 17.22222222222222)"/></g><defs><path d="M763 24c-353 0-583-224-583-531v-983h190v968c0 214 149 370 393 370 243 0 391-156 391-370v-968h190v983c0 307-230 531-581 531" id="M"/><path d="M158 0v-1118h174v172h12c41-113 157-188 290-188 26 0 70 2 91 3v181c-11-2-60-10-108-10-161 0-279 109-279 260V0H158" id="N"/><path d="M677 24c-213 0-288-135-325-197h-20V0H158v-1490h180v551h14c37-59 106-193 324-193 279 0 474 222 474 576 0 356-194 580-473 580zm-27-161c209 0 317-186 317-421 0-232-105-413-317-413-206 0-314 166-314 413 0 249 111 421 314 421" id="O"/><path d="M471 26C259 26 90-98 90-318c0-256 228-303 435-329 202-27 287-16 287-108 0-139-79-219-234-219-161 0-248 86-283 164l-173-57c86-203 278-265 451-265 150 0 419 46 419 395V0H815v-152h-12C765-73 660 26 471 26zm31-159c199 0 310-134 310-271v-155c-30 35-226 55-295 64-131 17-246 59-246 186 0 116 97 176 231 176" id="P"/><path d="M338-670V0H158v-1118h173l1 207c72-158 192-221 342-221 226 0 378 139 378 422V0H872v-695c0-172-96-275-252-275-161 0-282 109-282 300" id="Q"/><path d="M180 0v-1490h901v168H370v510h643v168H370V0H180" id="R"/><path d="M158 0v-1118h180V0H158zm91-1301c-68 0-125-53-125-119s57-119 125-119c69 0 126 53 126 119s-57 119-126 119" id="S"/><path d="M65 0l393-574-370-544h210c88 136 192 297 267 435 67-142 176-302 264-435h206L661-564 1053 0H844c-94-144-206-310-287-458C484-308 366-142 273 0H65" id="T"/><g id="a"><use transform="matrix(0.010850694444444444,0,0,0.010850694444444444,0,0)" xlink:href="#M"/><use transform="matrix(0.010850694444444444,0,0,0.010850694444444444,16.536458333333332,0)" xlink:href="#N"/><use transform="matrix(0.010850694444444444,0,0,0.010850694444444444,25.24956597222222,0)" xlink:href="#O"/><use transform="matrix(0.010850694444444444,0,0,0.010850694444444444,39.07335069444444,0)" xlink:href="#P"/><use transform="matrix(0.010850694444444444,0,0,0.010850694444444444,51.55164930555556,0)" xlink:href="#Q"/><use transform="matrix(0.010850694444444444,0,0,0.010850694444444444,64.68098958333333,0)" xlink:href="#R"/><use transform="matrix(0.010850694444444444,0,0,0.010850694444444444,77.79947916666666,0)" xlink:href="#S"/><use transform="matrix(0.010850694444444444,0,0,0.010850694444444444,83.1814236111111,0)" xlink:href="#T"/></g><path d="M598-1118v154H368v674c0 100 37 144 132 144 23 0 62-6 92-12L629-6c-37 13-88 20-134 20-193 0-307-107-307-290v-688H20v-154h168v-266h180v266h230" id="U"/><path d="M628 24c-324 0-524-230-524-574 0-343 198-582 503-582 237 0 487 146 487 559v75H286c9 234 145 362 343 362 132 0 231-58 273-172l174 48C1024-91 857 24 628 24zM287-650h624c-17-190-120-322-304-322-192 0-309 151-320 322" id="V"/><g id="b"><use transform="matrix(0.010850694444444444,0,0,0.010850694444444444,0,0)" xlink:href="#M"/><use transform="matrix(0.010850694444444444,0,0,0.010850694444444444,16.536458333333332,0)" xlink:href="#U"/><use transform="matrix(0.010850694444444444,0,0,0.010850694444444444,23.58940972222222,0)" xlink:href="#V"/><use transform="matrix(0.010850694444444444,0,0,0.010850694444444444,36.545138888888886,0)" xlink:href="#Q"/><use transform="matrix(0.010850694444444444,0,0,0.010850694444444444,49.674479166666664,0)" xlink:href="#U"/><use transform="matrix(0.010850694444444444,0,0,0.010850694444444444,56.72743055555555,0)" xlink:href="#V"/></g><path d="M645 0H180v-1490h484c435 0 692 280 692 742 0 466-257 748-711 748zM370-168h263c363 0 539-218 539-580 0-358-176-574-521-574H370v1154" id="W"/><path d="M158 418v-1536h174v179h20c37-59 106-193 324-193 279 0 474 222 474 576 0 356-194 580-473 580-213 0-288-135-325-197h-14v591H158zm492-555c209 0 317-186 317-421 0-232-105-413-317-413-206 0-314 166-314 413 0 249 111 421 314 421" id="X"/><path d="M577 24c-279 0-473-224-473-580 0-354 195-576 474-576 218 0 287 134 324 193h14v-551h180V0H922v-173h-20C865-111 790 24 577 24zm27-161c203 0 314-172 314-421 0-247-108-413-314-413-212 0-317 181-317 413 0 235 108 421 317 421" id="Y"/><path d="M783 20c-382 0-661-292-661-764 0-473 279-766 661-766 302 0 548 182 601 489h-190c-42-204-217-313-411-313-268 0-476 208-476 590 0 381 209 588 476 588 195 0 369-110 411-313h190c-52 303-296 489-601 489" id="Z"/><path d="M613 24c-304 0-509-231-509-576 0-350 205-580 509-580 305 0 511 230 511 580 0 345-206 576-511 576zm0-161c226 0 329-195 329-415 0-222-103-419-329-419-223 0-326 196-326 419 0 220 103 415 326 415" id="aa"/><path d="M158 0v-1118h175l1 205c55-151 181-225 313-225 147 0 245 90 285 228 53-141 190-228 352-228 194 0 352 125 352 384V0h-181v-749c0-161-105-225-225-225-151 0-243 103-243 244V0H807v-767c0-124-93-207-219-207-131 0-250 92-250 270V0H158" id="ab"/><path d="M537 14c-226 0-379-139-379-422v-710h180v695c0 172 97 275 253 275 160 0 281-109 281-300v-670h181V0H879v-209C806-46 684 14 537 14" id="ac"/><path d="M338-1490V0H158v-1490h180" id="ad"/><g id="c"><use transform="matrix(0.010850694444444444,0,0,0.010850694444444444,0,0)" xlink:href="#W"/><use transform="matrix(0.010850694444444444,0,0,0.010850694444444444,16.03732638888889,0)" xlink:href="#S"/><use transform="matrix(0.010850694444444444,0,0,0.010850694444444444,21.419270833333336,0)" xlink:href="#X"/><use transform="matrix(0.010850694444444444,0,0,0.010850694444444444,35.02604166666667,0)" xlink:href="#V"/><use transform="matrix(0.010850694444444444,0,0,0.010850694444444444,47.98177083333333,0)" xlink:href="#Q"/><use transform="matrix(0.010850694444444444,0,0,0.010850694444444444,61.11111111111112,0)" xlink:href="#Y"/><use transform="matrix(0.010850694444444444,0,0,0.010850694444444444,74.71788194444444,0)" xlink:href="#V"/><use transform="matrix(0.010850694444444444,0,0,0.010850694444444444,87.67361111111111,0)" xlink:href="#Q"/><use transform="matrix(0.010850694444444444,0,0,0.010850694444444444,100.80295138888889,0)" xlink:href="#U"/><use transform="matrix(0.010850694444444444,0,0,0.010850694444444444,107.85590277777777,0)" xlink:href="#V"/><use transform="matrix(0.010850694444444444,0,0,0.010850694444444444,120.81163194444444,0)" xlink:href="#Z"/><use transform="matrix(0.010850694444444444,0,0,0.010850694444444444,137.04427083333334,0)" xlink:href="#aa"/><use transform="matrix(0.010850694444444444,0,0,0.010850694444444444,150.36892361111111,0)" xlink:href="#ab"/><use transform="matrix(0.010850694444444444,0,0,0.010850694444444444,169.83506944444446,0)" xlink:href="#ac"/><use transform="matrix(0.010850694444444444,0,0,0.010850694444444444,182.97526041666669,0)" xlink:href="#Q"/><use transform="matrix(0.010850694444444444,0,0,0.010850694444444444,196.10460069444443,0)" xlink:href="#P"/><use transform="matrix(0.010850694444444444,0,0,0.010850694444444444,208.5828993055556,0)" xlink:href="#ad"/><use transform="matrix(0.010850694444444444,0,0,0.010850694444444444,213.96484375000003,0)" xlink:href="#V"/></g><path d="M657 26c-323 0-524-166-541-416h195c15 169 171 246 346 246 202 0 356-106 356-265 5-203-294-238-475-293-239-73-380-191-380-389 0-252 224-419 512-419 294 0 499 171 508 396H992c-17-145-151-228-328-228-193 0-321 102-321 242 0 156 175 211 284 241l149 41c160 44 422 134 422 412 0 244-197 432-541 432" id="ae"/><path d="M611 442c-248 0-391-105-460-228l146-94c47 65 117 165 314 165 178 0 307-82 307-266v-224h-17C863-141 792-18 576-18c-268 0-472-195-472-546 0-346 197-568 476-568 216 0 288 133 326 193h17v-179h175V29c0 289-215 413-487 413zm-5-620c203 0 314-146 314-390 0-237-108-403-314-403-213 0-319 180-319 403 0 230 109 390 319 390" id="af"/><path d="M126 0v-134l627-806v-11H146v-167h839v143L376-178v11h629V0H126" id="ag"/><g id="d"><use transform="matrix(0.008173828125000001,0,0,0.008173828125000001,0,0)" xlink:href="#ae"/><use transform="matrix(0.008173828125000001,0,0,0.008173828125000001,10.740410156250002,0)" xlink:href="#V"/><use transform="matrix(0.008173828125000001,0,0,0.008173828125000001,20.499960937500003,0)" xlink:href="#af"/><use transform="matrix(0.008173828125000001,0,0,0.008173828125000001,30.766289062500004,0)" xlink:href="#Q"/><use transform="matrix(0.008173828125000001,0,0,0.008173828125000001,40.656621093750005,0)" xlink:href="#P"/><use transform="matrix(0.008173828125000001,0,0,0.008173828125000001,50.056523437500005,0)" xlink:href="#ad"/><use transform="matrix(0.008173828125000001,0,0,0.008173828125000001,54.11074218750001,0)" xlink:href="#P"/><use transform="matrix(0.008173828125000001,0,0,0.008173828125000001,63.51064453125001,0)" xlink:href="#ag"/><use transform="matrix(0.008173828125000001,0,0,0.008173828125000001,72.75524414062501,0)" xlink:href="#S"/><use transform="matrix(0.008173828125000001,0,0,0.008173828125000001,76.80946289062501,0)" xlink:href="#aa"/><use transform="matrix(0.008173828125000001,0,0,0.008173828125000001,86.84692382812501,0)" xlink:href="#Q"/><use transform="matrix(0.008173828125000001,0,0,0.008173828125000001,96.73725585937501,0)" xlink:href="#V"/></g><g id="e"><use transform="matrix(0.008173828125000001,0,0,0.008173828125000001,0,0)" xlink:href="#X"/><use transform="matrix(0.008173828125000001,0,0,0.008173828125000001,10.249980468750001,0)" xlink:href="#N"/><use transform="matrix(0.008173828125000001,0,0,0.008173828125000001,16.274091796875002,0)" xlink:href="#aa"/><use transform="matrix(0.008173828125000001,0,0,0.008173828125000001,26.311552734375002,0)" xlink:href="#O"/><use transform="matrix(0.008173828125000001,0,0,0.008173828125000001,36.561533203125,0)" xlink:href="#ad"/><use transform="matrix(0.008173828125000001,0,0,0.008173828125000001,40.615751953125,0)" xlink:href="#V"/><use transform="matrix(0.008173828125000001,0,0,0.008173828125000001,50.375302734375,0)" xlink:href="#ab"/><use transform="matrix(0.008173828125000001,0,0,0.008173828125000001,65.039150390625,0)" xlink:href="#P"/></g><path d="M600 0L52-1490h200c166 485 304 806 458 1336 156-533 285-846 449-1336h202L819 0H600" id="ah"/><g id="f"><use transform="matrix(0.008173828125000001,0,0,0.008173828125000001,0,0)" xlink:href="#ah"/><use transform="matrix(0.008173828125000001,0,0,0.008173828125000001,10.699541015625002,0)" xlink:href="#aa"/><use transform="matrix(0.008173828125000001,0,0,0.008173828125000001,20.737001953125002,0)" xlink:href="#U"/><use transform="matrix(0.008173828125000001,0,0,0.008173828125000001,26.295205078125004,0)" xlink:href="#P"/><use transform="matrix(0.008173828125000001,0,0,0.008173828125000001,35.695107421875,0)" xlink:href="#N"/><use transform="matrix(0.008173828125000001,0,0,0.008173828125000001,41.71921875000001,0)" xlink:href="#V"/></g><use transform="matrix(0.008173828125000001,0,0,0.008173828125000001,0,0)" xlink:href="#P" id="g"/><path d="M678-1118v154H420V0H240v-964H20v-154h220v-149c0-194 155-293 318-293 85 0 141 18 168 30l-50 154c-19-6-47-17-97-17-111 0-159 58-159 166v109h258" id="ai"/><path d="M481 0L54-1118h197c107 314 236 620 325 951 87-331 217-637 324-951h197L670 0H481" id="aj"/><g id="h"><use transform="matrix(0.008173828125000001,0,0,0.008173828125000001,0,0)" xlink:href="#ai"/><use transform="matrix(0.008173828125000001,0,0,0.008173828125000001,5.934199218750001,0)" xlink:href="#P"/><use transform="matrix(0.008173828125000001,0,0,0.008173828125000001,15.088886718750002,0)" xlink:href="#aj"/><use transform="matrix(0.008173828125000001,0,0,0.008173828125000001,24.170009765625004,0)" xlink:href="#aa"/><use transform="matrix(0.008173828125000001,0,0,0.008173828125000001,34.207470703125004,0)" xlink:href="#N"/><use transform="matrix(0.008173828125000001,0,0,0.008173828125000001,40.23158203125,0)" xlink:href="#V"/></g><g id="i"><use transform="matrix(0.008173828125000001,0,0,0.008173828125000001,0,0)" xlink:href="#Y"/><use transform="matrix(0.008173828125000001,0,0,0.008173828125000001,10.249980468750001,0)" xlink:href="#S"/></g><g id="j"><use transform="matrix(0.008173828125000001,0,0,0.008173828125000001,0,0)" xlink:href="#ac"/><use transform="matrix(0.008173828125000001,0,0,0.008173828125000001,9.898505859375001,0)" xlink:href="#Q"/></g><path d="M789 20c-398 0-667-293-667-764 0-473 273-766 655-766 315 0 558 198 612 487h-196c-61-191-204-311-415-311-262 0-471 207-471 590 0 380 208 588 482 588 249 0 420-165 425-427H828v-166h572v163c0 370-256 606-611 606" id="ak"/><path d="M538 24C308 24 148-78 108-271l171-41c32 123 123 178 257 178 156 0 256-77 256-169 0-77-54-128-164-154l-186-44c-203-48-300-148-300-305 0-192 176-326 414-326 230 0 351 112 402 269l-163 42c-31-80-94-158-238-158-133 0-233 69-233 162 0 83 57 129 188 160l169 40c203 48 298 149 298 302 0 196-179 339-441 339" id="al"/><g id="k"><use transform="matrix(0.008173828125000001,0,0,0.008173828125000001,0,0)" xlink:href="#ak"/><use transform="matrix(0.008173828125000001,0,0,0.008173828125000001,12.489609375000002,0)" xlink:href="#V"/><use transform="matrix(0.008173828125000001,0,0,0.008173828125000001,22.249160156250003,0)" xlink:href="#al"/><use transform="matrix(0.008173828125000001,0,0,0.008173828125000001,31.085068359375004,0)" xlink:href="#U"/><use transform="matrix(0.008173828125000001,0,0,0.008173828125000001,36.561533203125,0)" xlink:href="#S"/><use transform="matrix(0.008173828125000001,0,0,0.008173828125000001,40.615751953125,0)" xlink:href="#N"/><use transform="matrix(0.008173828125000001,0,0,0.008173828125000001,46.63986328125,0)" xlink:href="#V"/></g><g id="l"><use transform="matrix(0.008173828125000001,0,0,0.008173828125000001,0,0)" xlink:href="#U"/><use transform="matrix(0.008173828125000001,0,0,0.008173828125000001,5.4764648437500005,0)" xlink:href="#S"/><use transform="matrix(0.008173828125000001,0,0,0.008173828125000001,9.530683593750002,0)" xlink:href="#X"/><use transform="matrix(0.008173828125000001,0,0,0.008173828125000001,19.7806640625,0)" xlink:href="#aa"/><use transform="matrix(0.008173828125000001,0,0,0.008173828125000001,29.818125000000002,0)" xlink:href="#ad"/><use transform="matrix(0.008173828125000001,0,0,0.008173828125000001,33.87234375,0)" xlink:href="#aa"/><use transform="matrix(0.008173828125000001,0,0,0.008173828125000001,43.9098046875,0)" xlink:href="#af"/><use transform="matrix(0.008173828125000001,0,0,0.008173828125000001,54.1761328125,0)" xlink:href="#S"/><use transform="matrix(0.008173828125000001,0,0,0.008173828125000001,58.230351562500005,0)" xlink:href="#V"/></g><g id="m"><use transform="matrix(0.008173828125000001,0,0,0.008173828125000001,0,0)" xlink:href="#Y"/><use transform="matrix(0.008173828125000001,0,0,0.008173828125000001,10.249980468750001,0)" xlink:href="#S"/></g><g id="n"><use transform="matrix(0.008173828125000001,0,0,0.008173828125000001,0,0)" xlink:href="#ad"/><use transform="matrix(0.008173828125000001,0,0,0.008173828125000001,4.05421875,0)" xlink:href="#aa"/></g><g id="o"><use transform="matrix(0.008173828125000001,0,0,0.008173828125000001,0,0)" xlink:href="#al"/><use transform="matrix(0.008173828125000001,0,0,0.008173828125000001,8.835908203125001,0)" xlink:href="#U"/><use transform="matrix(0.008173828125000001,0,0,0.008173828125000001,14.394111328125003,0)" xlink:href="#P"/><use transform="matrix(0.008173828125000001,0,0,0.008173828125000001,23.794013671875007,0)" xlink:href="#U"/><use transform="matrix(0.008173828125000001,0,0,0.008173828125000001,29.107001953125007,0)" xlink:href="#aa"/></g><g id="p"><use transform="matrix(0.008173828125000001,0,0,0.008173828125000001,0,0)" xlink:href="#Y"/><use transform="matrix(0.008173828125000001,0,0,0.008173828125000001,10.249980468750001,0)" xlink:href="#V"/><use transform="matrix(0.008173828125000001,0,0,0.008173828125000001,20.009531250000002,0)" xlink:href="#S"/></g><g id="q"><use transform="matrix(0.008173828125000001,0,0,0.008173828125000001,0,0)" xlink:href="#X"/><use transform="matrix(0.008173828125000001,0,0,0.008173828125000001,10.249980468750001,0)" xlink:href="#N"/><use transform="matrix(0.008173828125000001,0,0,0.008173828125000001,16.274091796875002,0)" xlink:href="#aa"/><use transform="matrix(0.008173828125000001,0,0,0.008173828125000001,26.311552734375002,0)" xlink:href="#O"/><use transform="matrix(0.008173828125000001,0,0,0.008173828125000001,36.561533203125,0)" xlink:href="#ad"/><use transform="matrix(0.008173828125000001,0,0,0.008173828125000001,40.615751953125,0)" xlink:href="#V"/><use transform="matrix(0.008173828125000001,0,0,0.008173828125000001,50.375302734375,0)" xlink:href="#ab"/><use transform="matrix(0.008173828125000001,0,0,0.008173828125000001,65.039150390625,0)" xlink:href="#S"/></g><g id="r"><use transform="matrix(0.008173828125000001,0,0,0.008173828125000001,0,0)" xlink:href="#ah"/><use transform="matrix(0.008173828125000001,0,0,0.008173828125000001,11.549619140625001,0)" xlink:href="#S"/><use transform="matrix(0.008173828125000001,0,0,0.008173828125000001,15.603837890625002,0)" xlink:href="#al"/><use transform="matrix(0.008173828125000001,0,0,0.008173828125000001,24.439746093750003,0)" xlink:href="#ac"/><use transform="matrix(0.008173828125000001,0,0,0.008173828125000001,34.338251953125,0)" xlink:href="#P"/><use transform="matrix(0.008173828125000001,0,0,0.008173828125000001,43.738154296875,0)" xlink:href="#ad"/><use transform="matrix(0.008173828125000001,0,0,0.008173828125000001,47.792373046875,0)" xlink:href="#S"/><use transform="matrix(0.008173828125000001,0,0,0.008173828125000001,51.846591796875,0)" xlink:href="#ag"/><use transform="matrix(0.008173828125000001,0,0,0.008173828125000001,61.091191406250005,0)" xlink:href="#ag"/><use transform="matrix(0.008173828125000001,0,0,0.008173828125000001,70.335791015625,0)" xlink:href="#P"/><use transform="matrix(0.008173828125000001,0,0,0.008173828125000001,79.735693359375,0)" xlink:href="#N"/><use transform="matrix(0.008173828125000001,0,0,0.008173828125000001,85.75980468750001,0)" xlink:href="#V"/></g><g id="s"><use transform="matrix(0.008173828125000001,0,0,0.008173828125000001,0,0)" xlink:href="#X"/><use transform="matrix(0.008173828125000001,0,0,0.008173828125000001,10.249980468750001,0)" xlink:href="#N"/><use transform="matrix(0.008173828125000001,0,0,0.008173828125000001,16.274091796875002,0)" xlink:href="#aa"/><use transform="matrix(0.008173828125000001,0,0,0.008173828125000001,26.311552734375002,0)" xlink:href="#O"/><use transform="matrix(0.008173828125000001,0,0,0.008173828125000001,36.561533203125,0)" xlink:href="#ad"/><use transform="matrix(0.008173828125000001,0,0,0.008173828125000001,40.615751953125,0)" xlink:href="#V"/><use transform="matrix(0.008173828125000001,0,0,0.008173828125000001,50.375302734375,0)" xlink:href="#ab"/><use transform="matrix(0.008173828125000001,0,0,0.008173828125000001,65.039150390625,0)" xlink:href="#S"/></g><g id="t"><use transform="matrix(0.008173828125000001,0,0,0.008173828125000001,0,0)" xlink:href="#al"/><use transform="matrix(0.008173828125000001,0,0,0.008173828125000001,8.835908203125001,0)" xlink:href="#ac"/></g><g id="u"><use transform="matrix(0.008173828125000001,0,0,0.008173828125000001,0,0)" xlink:href="#ab"/><use transform="matrix(0.008173828125000001,0,0,0.008173828125000001,14.663847656250002,0)" xlink:href="#P"/><use transform="matrix(0.008173828125000001,0,0,0.008173828125000001,24.063750000000006,0)" xlink:href="#X"/><use transform="matrix(0.008173828125000001,0,0,0.008173828125000001,34.31373046875001,0)" xlink:href="#X"/><use transform="matrix(0.008173828125000001,0,0,0.008173828125000001,44.727187500000014,0)" xlink:href="#P"/></g><path fill="#333" d="M166-471v-247l1019-454v289L492-601v13l693 282v287" id="am"/><path fill="#333" d="M128 0v-1118h300V0H128zm150-1264c-91 0-165-68-165-154 0-85 74-154 165-154 90 0 165 69 165 154 0 86-75 154-165 154" id="an"/><path fill="#333" d="M428-647V0H128v-1118h283l4 231c63-156 176-245 348-245 232 0 384 159 384 421V0H847v-659c0-139-76-222-202-222-128 0-217 86-217 234" id="ao"/><path fill="#333" d="M628 22C291 22 81-210 81-554c0-346 210-578 547-578 265 0 455 142 497 372l-279 52c-25-116-99-188-215-188-160 0-244 139-244 341 0 200 84 341 244 341 116 0 193-74 217-195l279 51C1085-123 896 22 628 22" id="ap"/><path fill="#333" d="M428-1490V0H128v-1490h300" id="aq"/><path fill="#333" d="M513 14c-232 0-385-159-385-421v-711h300v659c0 139 76 222 202 222 127 0 217-86 217-234v-647h301V0H864l-4-232C797-74 683 14 513 14" id="ar"/><path fill="#333" d="M537 19C279 19 81-185 81-557c0-382 206-575 454-575 190 0 278 113 318 202h10v-560h300V0H868v-179h-15C812-89 719 19 537 19zm92-241c153 0 240-134 240-336 0-203-86-334-240-334-158 0-240 138-240 334 0 197 84 336 240 336" id="as"/><path fill="#333" d="M633 22C291 22 81-200 81-553c0-345 210-579 537-579 292 0 525 185 525 567v84H378c7 183 109 277 260 277 105 0 184-46 216-132l272 51C1071-99 893 22 633 22zM380-669h474c-15-146-94-237-233-237-143 0-229 99-241 237" id="at"/><path fill="#333" d="M1224-471L205-19v-287l694-281v-14L205-883v-289l1019 454v247" id="au"/><g id="v"><use transform="matrix(0.008680555555555556,0,0,0.008680555555555556,0,0)" xlink:href="#am"/><use transform="matrix(0.008680555555555556,0,0,0.008680555555555556,12.065972222222223,0)" xlink:href="#am"/><use transform="matrix(0.008680555555555556,0,0,0.008680555555555556,24.131944444444446,0)" xlink:href="#an"/><use transform="matrix(0.008680555555555556,0,0,0.008680555555555556,28.94965277777778,0)" xlink:href="#ao"/><use transform="matrix(0.008680555555555556,0,0,0.008680555555555556,40.017361111111114,0)" xlink:href="#ap"/><use transform="matrix(0.008680555555555556,0,0,0.008680555555555556,50.47743055555556,0)" xlink:href="#aq"/><use transform="matrix(0.008680555555555556,0,0,0.008680555555555556,55.29513888888889,0)" xlink:href="#ar"/><use transform="matrix(0.008680555555555556,0,0,0.008680555555555556,66.36284722222223,0)" xlink:href="#as"/><use transform="matrix(0.008680555555555556,0,0,0.008680555555555556,77.56944444444446,0)" xlink:href="#at"/><use transform="matrix(0.008680555555555556,0,0,0.008680555555555556,88.15972222222223,0)" xlink:href="#au"/><use transform="matrix(0.008680555555555556,0,0,0.008680555555555556,100.22569444444447,0)" xlink:href="#au"/></g><path d="M180 0v-1490h510c348 0 508 209 508 474 0 266-160 477-507 477H370V0H180zm190-706h312c236 0 327-133 327-310 0-176-91-307-329-307H370v617" id="av"/><g id="w"><use transform="matrix(0.010850694444444444,0,0,0.010850694444444444,0,0)" xlink:href="#av"/><use transform="matrix(0.010850694444444444,0,0,0.010850694444444444,14.073350694444445,0)" xlink:href="#V"/><use transform="matrix(0.010850694444444444,0,0,0.010850694444444444,27.029079861111104,0)" xlink:href="#N"/><use transform="matrix(0.010850694444444444,0,0,0.010850694444444444,35.39496527777777,0)" xlink:href="#al"/><use transform="matrix(0.010850694444444444,0,0,0.010850694444444444,47.12456597222221,0)" xlink:href="#aa"/><use transform="matrix(0.010850694444444444,0,0,0.010850694444444444,60.449218749999986,0)" xlink:href="#Q"/><use transform="matrix(0.010850694444444444,0,0,0.010850694444444444,73.57855902777777,0)" xlink:href="#P"/></g><path d="M180 0v-1490h190v1322h690V0H180" id="aw"/><g id="x"><use transform="matrix(0.008173828125000001,0,0,0.008173828125000001,0,0)" xlink:href="#aw"/><use transform="matrix(0.008173828125000001,0,0,0.008173828125000001,9.465292968750001,0)" xlink:href="#aa"/><use transform="matrix(0.008173828125000001,0,0,0.008173828125000001,19.50275390625,0)" xlink:href="#af"/><use transform="matrix(0.008173828125000001,0,0,0.008173828125000001,29.76908203125,0)" xlink:href="#aa"/><use transform="matrix(0.008173828125000001,0,0,0.008173828125000001,39.80654296875,0)" xlink:href="#ac"/><use transform="matrix(0.008173828125000001,0,0,0.008173828125000001,49.705048828125,0)" xlink:href="#U"/></g><path d="M613 24c-304 0-509-231-509-576 0-350 205-580 509-580 216 0 392 114 453 309l-173 49c-33-115-133-197-280-197-223 0-326 196-326 419 0 220 103 415 326 415 150 0 252-85 285-206l172 49C1010-95 832 24 613 24" id="ax"/><g id="y"><use transform="matrix(0.010850694444444444,0,0,0.010850694444444444,0,0)" xlink:href="#ae"/><use transform="matrix(0.010850694444444444,0,0,0.010850694444444444,14.2578125,0)" xlink:href="#S"/><use transform="matrix(0.010850694444444444,0,0,0.010850694444444444,19.639756944444443,0)" xlink:href="#Q"/><use transform="matrix(0.010850694444444444,0,0,0.010850694444444444,32.76909722222222,0)" xlink:href="#Y"/><use transform="matrix(0.010850694444444444,0,0,0.010850694444444444,46.37586805555556,0)" xlink:href="#P"/><use transform="matrix(0.010850694444444444,0,0,0.010850694444444444,58.85416666666667,0)" xlink:href="#ax"/><use transform="matrix(0.010850694444444444,0,0,0.010850694444444444,71.54947916666667,0)" xlink:href="#aa"/></g><g id="z"><use transform="matrix(0.008173828125000001,0,0,0.008173828125000001,0,0)" xlink:href="#ak"/><use transform="matrix(0.008173828125000001,0,0,0.008173828125000001,12.489609375000002,0)" xlink:href="#V"/><use transform="matrix(0.008173828125000001,0,0,0.008173828125000001,22.249160156250003,0)" xlink:href="#al"/><use transform="matrix(0.008173828125000001,0,0,0.008173828125000001,31.085068359375004,0)" xlink:href="#U"/><use transform="matrix(0.008173828125000001,0,0,0.008173828125000001,36.561533203125,0)" xlink:href="#S"/><use transform="matrix(0.008173828125000001,0,0,0.008173828125000001,40.615751953125,0)" xlink:href="#aa"/><use transform="matrix(0.008173828125000001,0,0,0.008173828125000001,50.653212890625,0)" xlink:href="#Q"/><use transform="matrix(0.008173828125000001,0,0,0.008173828125000001,60.543544921875,0)" xlink:href="#V"/></g><g id="A"><use transform="matrix(0.008173828125000001,0,0,0.008173828125000001,0,0)" xlink:href="#Y"/><use transform="matrix(0.008173828125000001,0,0,0.008173828125000001,10.249980468750001,0)" xlink:href="#S"/><use transform="matrix(0.008173828125000001,0,0,0.008173828125000001,14.304199218750002,0)" xlink:href="#X"/><use transform="matrix(0.008173828125000001,0,0,0.008173828125000001,24.554179687500003,0)" xlink:href="#V"/><use transform="matrix(0.008173828125000001,0,0,0.008173828125000001,34.31373046875,0)" xlink:href="#Q"/><use transform="matrix(0.008173828125000001,0,0,0.008173828125000001,44.204062500000006,0)" xlink:href="#Y"/><use transform="matrix(0.008173828125000001,0,0,0.008173828125000001,54.45404296875001,0)" xlink:href="#V"/><use transform="matrix(0.008173828125000001,0,0,0.008173828125000001,64.21359375000002,0)" xlink:href="#Q"/><use transform="matrix(0.008173828125000001,0,0,0.008173828125000001,74.10392578125001,0)" xlink:href="#U"/><use transform="matrix(0.008173828125000001,0,0,0.008173828125000001,79.580390625,0)" xlink:href="#S"/></g><path d="M370-1490V0H180v-1490h190" id="ay"/><g id="B"><use transform="matrix(0.008173828125000001,0,0,0.008173828125000001,0,0)" xlink:href="#ay"/><use transform="matrix(0.008173828125000001,0,0,0.008173828125000001,4.495605468750001,0)" xlink:href="#al"/><use transform="matrix(0.008173828125000001,0,0,0.008173828125000001,13.331513671875001,0)" xlink:href="#ax"/><use transform="matrix(0.008173828125000001,0,0,0.008173828125000001,22.894892578125003,0)" xlink:href="#N"/><use transform="matrix(0.008173828125000001,0,0,0.008173828125000001,29.458476562500003,0)" xlink:href="#S"/><use transform="matrix(0.008173828125000001,0,0,0.008173828125000001,33.5126953125,0)" xlink:href="#ag"/><use transform="matrix(0.008173828125000001,0,0,0.008173828125000001,42.757294921875,0)" xlink:href="#S"/><use transform="matrix(0.008173828125000001,0,0,0.008173828125000001,46.811513671875005,0)" xlink:href="#aa"/><use transform="matrix(0.008173828125000001,0,0,0.008173828125000001,56.848974609375006,0)" xlink:href="#Q"/><use transform="matrix(0.008173828125000001,0,0,0.008173828125000001,66.739306640625,0)" xlink:href="#V"/></g><g id="C"><use transform="matrix(0.008173828125000001,0,0,0.008173828125000001,0,0)" xlink:href="#ax"/><use transform="matrix(0.008173828125000001,0,0,0.008173828125000001,9.563378906250001,0)" xlink:href="#aa"/><use transform="matrix(0.008173828125000001,0,0,0.008173828125000001,19.600839843750002,0)" xlink:href="#ab"/><use transform="matrix(0.008173828125000001,0,0,0.008173828125000001,34.26468750000001,0)" xlink:href="#ac"/><use transform="matrix(0.008173828125000001,0,0,0.008173828125000001,44.16319335937501,0)" xlink:href="#Q"/><use transform="matrix(0.008173828125000001,0,0,0.008173828125000001,54.05352539062501,0)" xlink:href="#V"/></g><g id="D"><use transform="matrix(0.008173828125000001,0,0,0.008173828125000001,0,0)" xlink:href="#aw"/><use transform="matrix(0.008173828125000001,0,0,0.008173828125000001,9.465292968750001,0)" xlink:href="#aa"/><use transform="matrix(0.008173828125000001,0,0,0.008173828125000001,19.50275390625,0)" xlink:href="#af"/><use transform="matrix(0.008173828125000001,0,0,0.008173828125000001,29.76908203125,0)" xlink:href="#S"/><use transform="matrix(0.008173828125000001,0,0,0.008173828125000001,33.82330078125,0)" xlink:href="#Q"/></g><path d="M180 0v-1490h510c348 0 508 194 508 460 0 198-88 351-276 417L1256 0h-220L726-579c-117 2-238 0-356 1V0H180zm190-747h312c235 0 327-108 327-283 0-177-92-293-329-293H370v576" id="az"/><g id="E"><use transform="matrix(0.008173828125000001,0,0,0.008173828125000001,0,0)" xlink:href="#az"/><use transform="matrix(0.008173828125000001,0,0,0.008173828125000001,10.527890625000001,0)" xlink:href="#V"/><use transform="matrix(0.008173828125000001,0,0,0.008173828125000001,20.287441406250004,0)" xlink:href="#af"/><use transform="matrix(0.008173828125000001,0,0,0.008173828125000001,30.553769531250005,0)" xlink:href="#S"/><use transform="matrix(0.008173828125000001,0,0,0.008173828125000001,34.60798828125,0)" xlink:href="#al"/><use transform="matrix(0.008173828125000001,0,0,0.008173828125000001,43.443896484375,0)" xlink:href="#U"/><use transform="matrix(0.008173828125000001,0,0,0.008173828125000001,48.920361328125004,0)" xlink:href="#N"/><use transform="matrix(0.008173828125000001,0,0,0.008173828125000001,55.2223828125,0)" xlink:href="#P"/><use transform="matrix(0.008173828125000001,0,0,0.008173828125000001,64.62228515625,0)" xlink:href="#ag"/><use transform="matrix(0.008173828125000001,0,0,0.008173828125000001,73.866884765625,0)" xlink:href="#S"/><use transform="matrix(0.008173828125000001,0,0,0.008173828125000001,77.921103515625,0)" xlink:href="#aa"/><use transform="matrix(0.008173828125000001,0,0,0.008173828125000001,87.958564453125,0)" xlink:href="#Q"/><use transform="matrix(0.008173828125000001,0,0,0.008173828125000001,97.84889648437499,0)" xlink:href="#V"/></g><g id="F"><use transform="matrix(0.008173828125000001,0,0,0.008173828125000001,0,0)" xlink:href="#al"/><use transform="matrix(0.008173828125000001,0,0,0.008173828125000001,8.835908203125001,0)" xlink:href="#V"/><use transform="matrix(0.008173828125000001,0,0,0.008173828125000001,18.595458984375,0)" xlink:href="#af"/><use transform="matrix(0.008173828125000001,0,0,0.008173828125000001,28.861787109375,0)" xlink:href="#Q"/><use transform="matrix(0.008173828125000001,0,0,0.008173828125000001,38.752119140625,0)" xlink:href="#P"/><use transform="matrix(0.008173828125000001,0,0,0.008173828125000001,48.152021484375,0)" xlink:href="#ad"/><use transform="matrix(0.008173828125000001,0,0,0.008173828125000001,52.206240234375,0)" xlink:href="#P"/><use transform="matrix(0.008173828125000001,0,0,0.008173828125000001,61.606142578125,0)" xlink:href="#ag"/><use transform="matrix(0.008173828125000001,0,0,0.008173828125000001,70.8507421875,0)" xlink:href="#S"/><use transform="matrix(0.008173828125000001,0,0,0.008173828125000001,74.90496093750001,0)" xlink:href="#aa"/><use transform="matrix(0.008173828125000001,0,0,0.008173828125000001,84.94242187500001,0)" xlink:href="#Q"/><use transform="matrix(0.008173828125000001,0,0,0.008173828125000001,94.83275390625,0)" xlink:href="#S"/></g><g id="G"><use transform="matrix(0.008173828125000001,0,0,0.008173828125000001,0,0)" xlink:href="#ai"/><use transform="matrix(0.008173828125000001,0,0,0.008173828125000001,5.934199218750001,0)" xlink:href="#P"/><use transform="matrix(0.008173828125000001,0,0,0.008173828125000001,15.334101562500003,0)" xlink:href="#U"/><use transform="matrix(0.008173828125000001,0,0,0.008173828125000001,20.401875000000004,0)" xlink:href="#U"/><use transform="matrix(0.008173828125000001,0,0,0.008173828125000001,25.714863281250004,0)" xlink:href="#V"/></g><path d="M180 0v-1490h908v168H370v486h669v168H370v500h727V0H180" id="aA"/><g id="H"><use transform="matrix(0.008173828125000001,0,0,0.008173828125000001,0,0)" xlink:href="#aA"/><use transform="matrix(0.008173828125000001,0,0,0.008173828125000001,10.061982421875001,0)" xlink:href="#ad"/><use transform="matrix(0.008173828125000001,0,0,0.008173828125000001,14.116201171875002,0)" xlink:href="#S"/><use transform="matrix(0.008173828125000001,0,0,0.008173828125000001,18.170419921875002,0)" xlink:href="#ab"/><use transform="matrix(0.008173828125000001,0,0,0.008173828125000001,32.83426757812501,0)" xlink:href="#S"/><use transform="matrix(0.008173828125000001,0,0,0.008173828125000001,36.88848632812501,0)" xlink:href="#Q"/><use transform="matrix(0.008173828125000001,0,0,0.008173828125000001,46.77881835937501,0)" xlink:href="#P"/><use transform="matrix(0.008173828125000001,0,0,0.008173828125000001,56.17872070312501,0)" xlink:href="#ag"/><use transform="matrix(0.008173828125000001,0,0,0.008173828125000001,65.42332031250001,0)" xlink:href="#S"/><use transform="matrix(0.008173828125000001,0,0,0.008173828125000001,69.47753906250001,0)" xlink:href="#aa"/><use transform="matrix(0.008173828125000001,0,0,0.008173828125000001,79.51500000000001,0)" xlink:href="#Q"/><use transform="matrix(0.008173828125000001,0,0,0.008173828125000001,89.40533203125001,0)" xlink:href="#V"/></g><g id="I"><use transform="matrix(0.008173828125000001,0,0,0.008173828125000001,0,0)" xlink:href="#al"/><use transform="matrix(0.008173828125000001,0,0,0.008173828125000001,8.835908203125001,0)" xlink:href="#V"/><use transform="matrix(0.008173828125000001,0,0,0.008173828125000001,18.595458984375,0)" xlink:href="#af"/><use transform="matrix(0.008173828125000001,0,0,0.008173828125000001,28.861787109375,0)" xlink:href="#Q"/><use transform="matrix(0.008173828125000001,0,0,0.008173828125000001,38.752119140625,0)" xlink:href="#P"/><use transform="matrix(0.008173828125000001,0,0,0.008173828125000001,48.152021484375,0)" xlink:href="#ad"/><use transform="matrix(0.008173828125000001,0,0,0.008173828125000001,52.206240234375,0)" xlink:href="#P"/><use transform="matrix(0.008173828125000001,0,0,0.008173828125000001,61.606142578125,0)" xlink:href="#ag"/><use transform="matrix(0.008173828125000001,0,0,0.008173828125000001,70.8507421875,0)" xlink:href="#S"/><use transform="matrix(0.008173828125000001,0,0,0.008173828125000001,74.90496093750001,0)" xlink:href="#aa"/><use transform="matrix(0.008173828125000001,0,0,0.008173828125000001,84.94242187500001,0)" xlink:href="#Q"/><use transform="matrix(0.008173828125000001,0,0,0.008173828125000001,94.83275390625,0)" xlink:href="#V"/></g><path d="M180 0v-1490h270l367 940c28 72 75 218 110 339 35-117 81-264 110-339l362-940h271V0h-187c2-448-5-837 7-1287-157 497-311 829-483 1287H842C666-458 514-784 354-1284c12 438 5 843 7 1284H180" id="aB"/><g id="J"><use transform="matrix(0.008173828125000001,0,0,0.008173828125000001,0,0)" xlink:href="#aB"/><use transform="matrix(0.008173828125000001,0,0,0.008173828125000001,15.121582031250002,0)" xlink:href="#aa"/><use transform="matrix(0.008173828125000001,0,0,0.008173828125000001,25.15904296875,0)" xlink:href="#Y"/><use transform="matrix(0.008173828125000001,0,0,0.008173828125000001,35.409023437500004,0)" xlink:href="#S"/><use transform="matrix(0.008173828125000001,0,0,0.008173828125000001,39.4632421875,0)" xlink:href="#ai"/><use transform="matrix(0.008173828125000001,0,0,0.008173828125000001,45.65900390625,0)" xlink:href="#S"/><use transform="matrix(0.008173828125000001,0,0,0.008173828125000001,49.71322265625,0)" xlink:href="#ax"/><use transform="matrix(0.008173828125000001,0,0,0.008173828125000001,59.440078125,0)" xlink:href="#P"/></g><g id="K"><use transform="matrix(0.008173828125000001,0,0,0.008173828125000001,0,0)" xlink:href="#Z"/><use transform="matrix(0.008173828125000001,0,0,0.008173828125000001,12.228046875000002,0)" xlink:href="#aa"/><use transform="matrix(0.008173828125000001,0,0,0.008173828125000001,22.265507812500008,0)" xlink:href="#ab"/><use transform="matrix(0.008173828125000001,0,0,0.008173828125000001,36.92935546875,0)" xlink:href="#ab"/><use transform="matrix(0.008173828125000001,0,0,0.008173828125000001,51.593203124999995,0)" xlink:href="#V"/><use transform="matrix(0.008173828125000001,0,0,0.008173828125000001,61.35275390625,0)" xlink:href="#Q"/><use transform="matrix(0.008173828125000001,0,0,0.008173828125000001,71.2430859375,0)" xlink:href="#U"/><use transform="matrix(0.008173828125000001,0,0,0.008173828125000001,76.80128906249999,0)" xlink:href="#P"/><use transform="matrix(0.008173828125000001,0,0,0.008173828125000001,86.20119140624999,0)" xlink:href="#N"/><use transform="matrix(0.008173828125000001,0,0,0.008173828125000001,92.22530273437499,0)" xlink:href="#V"/></g><path fill="#333" d="M42 0l360-574-338-544h324c72 124 151 261 209 394 58-134 140-271 215-394h318L785-570 1146 0H824c-79-136-169-280-234-425C528-278 439-134 360 0H42" id="aC"/><path fill="#333" d="M683-1118v229H474v562c0 71 29 104 102 104 23 0 73-7 95-13l43 225C647 9 580 16 520 16 296 16 174-96 174-301v-588H20v-229h154v-266h300v266h209" id="aD"/><g id="L"><use transform="matrix(0.008680555555555556,0,0,0.008680555555555556,0,0)" xlink:href="#am"/><use transform="matrix(0.008680555555555556,0,0,0.008680555555555556,12.065972222222223,0)" xlink:href="#am"/><use transform="matrix(0.008680555555555556,0,0,0.008680555555555556,24.131944444444446,0)" xlink:href="#at"/><use transform="matrix(0.008680555555555556,0,0,0.008680555555555556,34.36631944444444,0)" xlink:href="#aC"/><use transform="matrix(0.008680555555555556,0,0,0.008680555555555556,44.93055555555556,0)" xlink:href="#aD"/><use transform="matrix(0.008680555555555556,0,0,0.008680555555555556,51.26736111111111,0)" xlink:href="#at"/><use transform="matrix(0.008680555555555556,0,0,0.008680555555555556,61.857638888888886,0)" xlink:href="#ao"/><use transform="matrix(0.008680555555555556,0,0,0.008680555555555556,72.92534722222221,0)" xlink:href="#as"/><use transform="matrix(0.008680555555555556,0,0,0.008680555555555556,84.13194444444444,0)" xlink:href="#au"/><use transform="matrix(0.008680555555555556,0,0,0.008680555555555556,96.19791666666667,0)" xlink:href="#au"/></g></defs></g></svg>